# Blender 4.4.3
# www.blender.org
o Cube
v 0.314077 0.500000 0.314077
v 0.500000 -0.500000 0.500000
v -0.314077 0.500000 0.314077
v -0.500000 -0.500000 0.500000
v 0.314077 0.500000 -0.314077
v 0.500000 -0.500000 -0.500000
v -0.314077 0.500000 -0.314077
v -0.500000 -0.500000 -0.500000
vn -0.0000 1.0000 -0.0000
vn -0.9832 0.1828 -0.0000
vn -0.0000 0.1828 -0.9832
vn -0.0000 -1.0000 -0.0000
vn -0.0000 0.1828 0.9832
vn 0.9832 0.1828 -0.0000
vt 0.673104 0.703927
vt 0.826651 0.550380
vt 0.826651 0.703927
vt 0.200941 0.374830
vt 0.001946 0.126199
vt 0.246388 0.126199
vt 0.299769 0.125283
vt 0.498764 0.373914
vt 0.254322 0.373914
vt 0.872008 0.376946
vt 0.627566 0.132504
vt 0.872008 0.132504
vt 0.329557 0.751094
vt 0.130562 0.502463
vt 0.375004 0.502463
vt 0.423992 0.504326
vt 0.622987 0.752957
vt 0.378545 0.752957
vt 0.673104 0.550380
vt 0.047393 0.374830
vt 0.453317 0.125283
vt 0.627566 0.376946
vt 0.176009 0.751094
vt 0.577540 0.504326
s 0
f 5/1/1 3/2/1 1/3/1
f 3/4/2 8/5/2 4/6/2
f 7/7/3 6/8/3 8/9/3
f 2/10/4 8/11/4 6/12/4
f 1/13/5 4/14/5 2/15/5
f 5/16/6 2/17/6 6/18/6
f 5/1/1 7/19/1 3/2/1
f 3/4/2 7/20/2 8/5/2
f 7/7/3 5/21/3 6/8/3
f 2/10/4 4/22/4 8/11/4
f 1/13/5 3/23/5 4/14/5
f 5/16/6 1/24/6 2/17/6
