# Blender 4.4.3
# www.blender.org
o Cube
v -0.546378 0.500000 -0.500000
v -0.546378 -0.500000 -0.500000
v -0.546378 0.500000 0.500000
v -0.546378 -0.500000 0.500000
v 0.007159 0.500000 -0.500000
v 0.007159 -0.500000 -0.500000
v 0.007159 0.500000 0.500000
v 0.007159 -0.500000 0.500000
v 0.555048 -0.337833 -0.337833
v 0.555048 -0.000000 -0.477768
v 0.238588 -0.000000 -0.431484
v -0.029856 -0.000000 -0.327685
v 0.238588 -0.305105 -0.305105
v -0.029856 -0.231708 -0.231708
v 0.238588 -0.431484 0.000000
v -0.029856 -0.327685 0.000000
v 0.238588 -0.305105 0.305105
v -0.029856 -0.231708 0.231708
v 0.238588 -0.000000 0.431484
v -0.029856 -0.000000 0.327685
v 0.238588 0.305105 0.305105
v -0.029856 0.231708 0.231708
v 0.238588 0.431484 0.000000
v -0.029856 0.327685 0.000000
v 0.238588 0.305105 -0.305105
v -0.029856 0.231708 -0.231708
v 0.555048 -0.477768 -0.000000
v 0.555048 -0.337833 0.337833
v 0.555048 -0.000000 0.477768
v 0.555048 0.337833 0.337833
v 0.555048 0.477768 -0.000000
v 0.555048 0.337833 -0.337833
vn -0.0000 1.0000 -0.0000
vn -0.0000 -0.0000 1.0000
vn 1.0000 -0.0000 -0.0000
vn -0.0000 -1.0000 -0.0000
vn -1.0000 -0.0000 -0.0000
vn -0.0000 -0.0000 -1.0000
vn -0.2478 0.9688 -0.0000
vn -0.1447 0.6997 0.6997
vn -0.2478 0.6850 0.6851
vn -0.2478 -0.0000 -0.9688
vn -0.7626 -0.4574 -0.4574
vn -0.2478 -0.6851 -0.6851
vn -0.1447 -0.9895 -0.0000
vn -0.1447 -0.6997 -0.6997
vn -0.2478 -0.9688 -0.0000
vn -0.1447 -0.0000 -0.9895
vn -0.7626 -0.6469 -0.0000
vn -0.2478 -0.6851 0.6850
vn -0.1447 -0.0000 0.9895
vn -0.2478 -0.0000 0.9688
vn -0.7626 -0.4574 0.4574
vn -0.1447 -0.6997 0.6997
vn -0.7626 -0.0000 0.6469
vn -0.1447 0.6997 -0.6997
vn -0.1447 0.9895 -0.0000
vn -0.7626 0.4574 0.4574
vn -0.7626 0.6469 -0.0000
vn -0.2478 0.6851 -0.6850
vn -0.7626 0.4574 -0.4574
vn -0.7626 -0.0000 -0.6469
vt 0.875000 0.500000
vt 0.625000 0.750000
vt 0.625000 0.500000
vt 0.375000 1.000000
vt 0.375000 0.750000
vt 0.625000 0.000000
vt 0.375000 0.250000
vt 0.375000 0.000000
vt 0.375000 0.500000
vt 0.125000 0.750000
vt 0.125000 0.500000
vt 0.625000 0.250000
vt 0.250000 0.500000
vt 1.000000 0.500000
vt 0.875000 1.000000
vt 0.750000 0.500000
vt 0.750000 1.000000
vt 0.500000 0.500000
vt 0.625000 1.000000
vt 0.500000 1.000000
vt 0.010000 0.250000
vt 0.250000 0.010000
vt 0.490000 0.250000
vt 0.919706 0.080294
vt 0.580294 0.080294
vt 0.580294 0.419706
vt 0.250000 1.000000
vt 0.000000 0.500000
vt 0.125000 1.000000
vt 0.875000 0.750000
vt 1.000000 1.000000
vt 0.419706 0.419706
vt 0.250000 0.490000
vt 0.080294 0.419706
vt 0.080294 0.080294
vt 0.419706 0.080294
vt 0.750000 0.490000
vt 0.919706 0.419706
vt 0.990000 0.250000
vt 0.750000 0.010000
vt 0.510000 0.250000
vt 0.000000 1.000000
s 0
f 5/1/1 1/3/1 3/2/1
f 3/2/2 4/5/2 8/4/2
f 7/6/3 8/8/3 6/7/3
f 2/9/4 6/11/4 8/10/4
f 1/3/5 2/9/5 4/5/5
f 5/12/6 6/7/6 2/9/6
s 1
f 23/13/7 21/9/9 30/9/8
f 11/14/10 13/1/12 14/15/11
f 13/1/12 9/1/14 27/16/13
f 14/15/11 13/1/12 15/16/15
f 13/1/12 11/14/10 10/14/16
f 16/17/17 15/16/15 17/3/18
f 21/9/9 19/18/20 29/18/19
f 18/19/21 17/3/18 19/18/20
f 17/3/18 28/3/22 29/18/19
f 20/20/23 19/18/20 21/9/9
f 23/13/7 31/13/25 32/11/24
f 22/4/26 21/9/9 23/13/7
f 24/21/27 16/23/17 20/22/23
s 0
f 28/24/3 32/26/3 30/25/3
s 1
f 24/27/27 23/13/7 25/11/28
f 11/28/10 25/11/28 32/11/24
f 26/29/29 25/11/28 11/28/10
f 17/3/18 15/16/15 27/16/13
s 0
f 5/1/1 3/2/1 7/30/1
f 3/2/2 8/4/2 7/19/2
f 7/6/3 6/7/3 5/12/3
f 2/9/4 8/10/4 4/5/4
f 1/3/5 4/5/5 3/2/5
f 5/12/6 2/9/6 1/3/6
s 1
f 23/13/7 30/9/8 31/13/25
f 11/14/10 14/15/11 12/31/30
f 13/1/12 27/16/13 15/16/15
f 14/15/11 15/16/15 16/17/17
f 13/1/12 10/14/16 9/1/14
f 16/17/17 17/3/18 18/19/21
f 21/9/9 29/18/19 30/9/8
f 18/19/21 19/18/20 20/20/23
f 17/3/18 29/18/19 19/18/20
f 20/20/23 21/9/9 22/4/26
f 23/13/7 32/11/24 25/11/28
f 22/4/26 23/13/7 24/27/27
f 16/23/17 12/33/30 14/32/11
f 12/33/30 24/21/27 26/34/29
f 24/21/27 20/22/23 22/35/26
f 20/22/23 16/23/17 18/36/21
f 16/23/17 24/21/27 12/33/30
s 0
f 32/26/3 9/38/3 10/37/3
f 9/38/3 28/24/3 27/39/3
f 28/24/3 30/25/3 29/40/3
f 30/25/3 32/26/3 31/41/3
f 32/26/3 28/24/3 9/38/3
s 1
f 24/27/27 25/11/28 26/29/29
f 11/28/10 32/11/24 10/28/16
f 26/29/29 11/28/10 12/42/30
f 17/3/18 27/16/13 28/3/22
