# Blender 4.0.2
# www.blender.org
o Sphere
v 0.000000 -0.497943 -0.400000
v 0.000000 -0.651016 -0.369552
v 0.000000 -0.867495 -0.153073
v 0.153073 -0.497943 -0.369552
v 0.141421 -0.651016 -0.341421
v 0.108239 -0.780786 -0.261313
v 0.058579 -0.867495 -0.141421
v 0.282843 -0.497943 -0.282843
v 0.261313 -0.651016 -0.261313
v 0.200000 -0.780786 -0.200000
v 0.108239 -0.867495 -0.108239
v 0.369552 -0.497943 -0.153073
v 0.341421 -0.651016 -0.141421
v 0.261313 -0.780786 -0.108239
v 0.141421 -0.867495 -0.058579
v 0.400000 -0.497943 0.000000
v 0.369552 -0.651016 0.000000
v 0.282843 -0.780786 0.000000
v 0.153073 -0.867495 0.000000
v 0.369552 -0.497943 0.153073
v 0.341421 -0.651016 0.141421
v 0.261313 -0.780786 0.108239
v 0.141421 -0.867495 0.058579
v 0.282843 -0.497943 0.282843
v 0.261312 -0.651016 0.261313
v 0.200000 -0.780786 0.200000
v 0.108239 -0.867495 0.108239
v 0.153073 -0.497943 0.369552
v 0.141421 -0.651016 0.341421
v 0.108239 -0.780786 0.261313
v 0.058579 -0.867495 0.141421
v 0.000000 -0.497943 0.400000
v 0.000000 -0.651016 0.369552
v 0.000000 -0.780786 0.282843
v 0.000000 -0.867495 0.153073
v 0.000000 -0.897943 0.000000
v -0.153073 -0.497943 0.369552
v -0.141421 -0.651016 0.341421
v -0.108239 -0.780786 0.261313
v -0.058579 -0.867495 0.141421
v -0.282843 -0.497943 0.282843
v -0.261313 -0.651016 0.261312
v -0.200000 -0.780786 0.200000
v -0.108239 -0.867495 0.108239
v -0.369552 -0.497943 0.153073
v -0.341421 -0.651016 0.141421
v -0.261313 -0.780786 0.108239
v -0.141421 -0.867495 0.058579
v -0.400000 -0.497943 0.000000
v -0.369552 -0.651016 0.000000
v -0.282843 -0.780786 0.000000
v -0.153073 -0.867495 0.000000
v -0.369552 -0.497943 -0.153073
v -0.341421 -0.651016 -0.141421
v -0.261312 -0.780786 -0.108239
v -0.141421 -0.867495 -0.058579
v -0.282843 -0.497943 -0.282843
v -0.261312 -0.651016 -0.261313
v -0.200000 -0.780786 -0.200000
v -0.108239 -0.867495 -0.108239
v -0.153073 -0.497943 -0.369552
v -0.141421 -0.651016 -0.341421
v -0.108239 -0.780786 -0.261313
v -0.058579 -0.867495 -0.141421
v 0.000000 -0.780786 -0.282843
v 0.000000 0.655130 -0.369552
v 0.000000 0.502057 -0.400000
v 0.058579 0.871609 -0.141421
v 0.108239 0.784900 -0.261313
v 0.141421 0.655130 -0.341421
v 0.153073 0.502057 -0.369552
v 0.108239 0.871609 -0.108239
v 0.200000 0.784900 -0.200000
v 0.261313 0.655130 -0.261313
v 0.282843 0.502057 -0.282843
v 0.141421 0.871609 -0.058579
v 0.261313 0.784900 -0.108239
v 0.341421 0.655130 -0.141421
v 0.369552 0.502057 -0.153073
v 0.153073 0.871609 -0.000000
v 0.282843 0.784900 -0.000000
v 0.369552 0.655130 -0.000000
v 0.400000 0.502057 -0.000000
v 0.141421 0.871609 0.058579
v 0.261313 0.784900 0.108239
v 0.341421 0.655130 0.141421
v 0.369552 0.502057 0.153073
v 0.108239 0.871609 0.108239
v 0.200000 0.784900 0.200000
v 0.261312 0.655130 0.261313
v 0.282843 0.502057 0.282843
v 0.058579 0.871609 0.141421
v 0.108239 0.784900 0.261313
v 0.141421 0.655130 0.341421
v 0.153073 0.502057 0.369552
v 0.000000 0.871609 0.153073
v 0.000000 0.784900 0.282843
v 0.000000 0.655130 0.369552
v 0.000000 0.502057 0.400000
v 0.000000 0.902057 -0.000000
v -0.058579 0.871609 0.141421
v -0.108239 0.784900 0.261312
v -0.141421 0.655130 0.341421
v -0.153074 0.502057 0.369552
v -0.108239 0.871609 0.108239
v -0.200000 0.784900 0.200000
v -0.261313 0.655130 0.261312
v -0.282843 0.502057 0.282843
v -0.141421 0.871609 0.058579
v -0.261313 0.784900 0.108239
v -0.341421 0.655130 0.141421
v -0.369552 0.502057 0.153073
v -0.153073 0.871609 -0.000000
v -0.282843 0.784900 -0.000000
v -0.369552 0.655130 -0.000000
v -0.400000 0.502057 -0.000000
v -0.141421 0.871609 -0.058579
v -0.261313 0.784900 -0.108239
v -0.341421 0.655130 -0.141422
v -0.369552 0.502057 -0.153074
v -0.108239 0.871609 -0.108239
v -0.200000 0.784900 -0.200000
v -0.261312 0.655130 -0.261313
v -0.282843 0.502057 -0.282843
v -0.058579 0.871609 -0.141421
v -0.108239 0.784900 -0.261313
v -0.141421 0.655130 -0.341421
v -0.153073 0.502057 -0.369552
v 0.000000 0.871609 -0.153073
v 0.000000 0.784900 -0.282843
vn -0.0000 -0.6952 -0.7189
vn 0.1543 -0.9152 -0.3724
vn -0.0000 -0.9152 -0.4031
vn -0.0000 -0.0969 -0.9953
vn 0.3549 -0.3744 -0.8567
vn -0.0000 -0.3744 -0.9273
vn -0.0000 -1.0000 -0.0000
vn 0.2751 -0.6952 -0.6641
vn 0.2850 -0.9152 -0.2850
vn 0.5083 -0.6952 -0.5083
vn 0.3809 -0.0969 -0.9195
vn 0.6557 -0.3744 -0.6557
vn 0.8567 -0.3744 -0.3549
vn 0.6641 -0.6952 -0.2751
vn 0.3724 -0.9152 -0.1543
vn 0.9195 -0.0969 -0.3809
vn 0.4031 -0.9152 -0.0000
vn 0.9953 -0.0969 -0.0000
vn 0.9273 -0.3744 -0.0000
vn 0.7189 -0.6952 -0.0000
vn 0.8567 -0.3744 0.3549
vn 0.3724 -0.9152 0.1543
vn 0.6641 -0.6952 0.2751
vn 0.2850 -0.9152 0.2850
vn 0.5083 -0.6952 0.5083
vn 0.9195 -0.0969 0.3809
vn 0.6557 -0.3744 0.6557
vn 0.2751 -0.6952 0.6641
vn 0.1543 -0.9152 0.3724
vn 0.3809 -0.0969 0.9195
vn 0.3549 -0.3744 0.8567
vn -0.0000 -0.9152 0.4031
vn -0.0000 -0.3744 0.9273
vn -0.0000 -0.6952 0.7189
vn -0.1543 -0.9152 0.3724
vn -0.2751 -0.6952 0.6641
vn -0.0000 -0.0969 0.9953
vn -0.3549 -0.3744 0.8567
vn -0.2850 -0.9152 0.2850
vn -0.5083 -0.6952 0.5083
vn -0.3809 -0.0969 0.9195
vn -0.6557 -0.3744 0.6557
vn -0.3724 -0.9152 0.1543
vn -0.9195 -0.0969 0.3809
vn -0.8567 -0.3744 0.3549
vn -0.6641 -0.6952 0.2751
vn -0.4031 -0.9152 -0.0000
vn -0.9953 -0.0969 -0.0000
vn -0.9273 -0.3744 -0.0000
vn -0.7189 -0.6952 -0.0000
vn -0.9953 0.0969 -0.0000
vn -0.3724 -0.9152 -0.1543
vn -0.6641 -0.6952 -0.2751
vn -0.9195 0.0969 -0.3809
vn -0.9195 -0.0969 -0.3809
vn -0.0000 0.0969 0.9953
vn -0.8567 -0.3744 -0.3549
vn 0.7038 -0.0969 -0.7038
vn 0.9195 0.0969 -0.3809
vn -0.5083 -0.6952 -0.5083
vn 0.9953 0.0969 -0.0000
vn 0.3809 0.0969 -0.9195
vn -0.2850 -0.9152 -0.2850
vn -0.7038 -0.0969 -0.7038
vn -0.6557 -0.3744 -0.6557
vn 0.7038 -0.0969 0.7038
vn 0.3809 0.0969 0.9195
vn -0.7038 0.0969 0.7038
vn -0.9195 0.0969 0.3809
vn -0.1543 -0.9152 -0.3724
vn -0.3549 -0.3744 -0.8567
vn -0.7038 -0.0969 0.7038
vn -0.7038 0.0969 -0.7038
vn -0.2751 -0.6952 -0.6641
vn -0.3809 -0.0969 -0.9195
vn -0.0000 0.0968 -0.9953
vn 0.7038 0.0969 -0.7038
vn -0.3809 0.0969 -0.9195
vn 0.7038 0.0969 0.7038
vn 0.9195 0.0969 0.3809
vn -0.3809 0.0969 0.9195
vn -0.0000 0.6952 -0.7189
vn 0.3549 0.3744 -0.8567
vn -0.0000 0.3744 -0.9273
vn -0.0000 0.9152 -0.4031
vn -0.0000 1.0000 -0.0000
vn 0.1543 0.9152 -0.3724
vn 0.2751 0.6952 -0.6641
vn 0.2850 0.9152 -0.2850
vn 0.5083 0.6952 -0.5083
vn 0.6557 0.3744 -0.6557
vn 0.3724 0.9152 -0.1543
vn 0.6641 0.6952 -0.2751
vn 0.8567 0.3744 -0.3549
vn 0.9273 0.3744 -0.0000
vn 0.4031 0.9152 -0.0000
vn 0.7189 0.6952 -0.0000
vn 0.8567 0.3744 0.3549
vn 0.3724 0.9152 0.1543
vn 0.6641 0.6952 0.2751
vn 0.2850 0.9152 0.2850
vn 0.5083 0.6952 0.5083
vn 0.6557 0.3744 0.6557
vn 0.2751 0.6952 0.6641
vn 0.3549 0.3744 0.8567
vn 0.1543 0.9152 0.3724
vn -0.0000 0.3744 0.9273
vn -0.0000 0.9152 0.4031
vn -0.0000 0.6952 0.7189
vn -0.3549 0.3744 0.8567
vn -0.1543 0.9152 0.3724
vn -0.2751 0.6952 0.6641
vn -0.2850 0.9152 0.2850
vn -0.5083 0.6952 0.5083
vn -0.6557 0.3744 0.6557
vn -0.6641 0.6952 0.2751
vn -0.8567 0.3744 0.3549
vn -0.3724 0.9152 0.1543
vn -0.9273 0.3744 -0.0000
vn -0.4031 0.9152 -0.0000
vn -0.7189 0.6952 -0.0000
vn -0.3724 0.9152 -0.1543
vn -0.6641 0.6952 -0.2751
vn -0.8567 0.3744 -0.3549
vn -0.5083 0.6952 -0.5083
vn -0.6557 0.3744 -0.6557
vn -0.2850 0.9152 -0.2850
vn -0.3549 0.3744 -0.8567
vn -0.1543 0.9152 -0.3724
vn -0.2751 0.6952 -0.6641
vt 0.750000 0.250000
vt 0.687500 0.125000
vt 0.750000 0.125000
vt 0.750000 0.500000
vt 0.687500 0.375000
vt 0.750000 0.375000
vt 0.718750 0.000000
vt 0.687500 0.250000
vt 0.656250 0.000000
vt 0.625000 0.125000
vt 0.625000 0.250000
vt 0.687500 0.500000
vt 0.625000 0.375000
vt 0.562500 0.375000
vt 0.562500 0.250000
vt 0.562500 0.125000
vt 0.562500 0.500000
vt 0.593750 0.000000
vt 0.500000 0.125000
vt 0.500000 0.500000
vt 0.500000 0.375000
vt 0.531250 0.000000
vt 0.500000 0.250000
vt 0.437500 0.375000
vt 0.468750 0.000000
vt 0.437500 0.125000
vt 0.437500 0.250000
vt 0.406250 0.000000
vt 0.375000 0.125000
vt 0.375000 0.250000
vt 0.437500 0.500000
vt 0.375000 0.375000
vt 0.312500 0.250000
vt 0.312500 0.125000
vt 0.312500 0.500000
vt 0.312500 0.375000
vt 0.343750 0.000000
vt 0.250000 0.125000
vt 0.250000 0.375000
vt 0.281250 0.000000
vt 0.250000 0.250000
vt 0.218750 0.000000
vt 0.187500 0.125000
vt 0.187500 0.250000
vt 0.250000 0.500000
vt 0.187500 0.375000
vt 0.156250 0.000000
vt 0.125000 0.125000
vt 0.125000 0.250000
vt 0.187500 0.500000
vt 0.125000 0.375000
vt 0.062500 0.125000
vt 0.062500 0.500000
vt 0.062500 0.375000
vt 0.093750 0.000000
vt 0.062500 0.250000
vt 0.000000 0.125000
vt 0.000000 0.500000
vt 0.000000 0.375000
vt 0.031250 0.000000
vt 0.000000 0.250000
vt 0.968750 0.000000
vt 1.000000 0.125000
vt 0.937500 0.125000
vt 1.000000 0.375000
vt 0.937500 0.250000
vt 1.000000 0.250000
vt 1.000000 0.500000
vt 0.937500 0.500000
vt 0.937500 0.375000
vt 0.625000 0.500000
vt 0.875000 0.250000
vt 0.875000 0.125000
vt 0.875000 0.500000
vt 0.875000 0.375000
vt 0.375000 0.500000
vt 0.125000 0.500000
vt 0.906250 0.000000
vt 0.812500 0.125000
vt 0.812500 0.375000
vt 0.843750 0.000000
vt 0.812500 0.250000
vt 0.812500 0.500000
vt 0.781250 0.000000
vt 0.750000 0.750000
vt 0.687500 0.625000
vt 0.750000 0.625000
vt 0.750000 0.875000
vt 0.718750 1.000000
vt 0.687500 0.875000
vt 0.687500 0.750000
vt 0.656250 1.000000
vt 0.625000 0.875000
vt 0.625000 0.750000
vt 0.625000 0.625000
vt 0.562500 0.875000
vt 0.562500 0.750000
vt 0.562500 0.625000
vt 0.593750 1.000000
vt 0.500000 0.625000
vt 0.531250 1.000000
vt 0.500000 0.875000
vt 0.500000 0.750000
vt 0.437500 0.625000
vt 0.468750 1.000000
vt 0.437500 0.875000
vt 0.437500 0.750000
vt 0.375000 0.875000
vt 0.375000 0.750000
vt 0.375000 0.625000
vt 0.406250 1.000000
vt 0.312500 0.750000
vt 0.312500 0.625000
vt 0.343750 1.000000
vt 0.312500 0.875000
vt 0.250000 0.625000
vt 0.281250 1.000000
vt 0.250000 0.875000
vt 0.250000 0.750000
vt 0.187500 0.625000
vt 0.218750 1.000000
vt 0.187500 0.875000
vt 0.187500 0.750000
vt 0.125000 0.875000
vt 0.125000 0.750000
vt 0.125000 0.625000
vt 0.156250 1.000000
vt 0.062500 0.750000
vt 0.062500 0.625000
vt 0.093750 1.000000
vt 0.062500 0.875000
vt 0.000000 0.625000
vt 0.031250 1.000000
vt 0.000000 0.875000
vt 0.000000 0.750000
vt 1.000000 0.875000
vt 0.968750 1.000000
vt 0.937500 0.875000
vt 1.000000 0.625000
vt 0.937500 0.750000
vt 1.000000 0.750000
vt 0.937500 0.625000
vt 0.875000 0.750000
vt 0.875000 0.625000
vt 0.906250 1.000000
vt 0.875000 0.875000
vt 0.812500 0.625000
vt 0.843750 1.000000
vt 0.812500 0.875000
vt 0.812500 0.750000
vt 0.781250 1.000000
s 1
f 65/1/1 7/2/2 3/3/3
f 1/4/4 5/5/5 2/6/6
f 36/7/7 3/3/3 7/2/2
f 65/1/1 5/5/5 6/8/8
f 36/9/7 7/2/2 11/10/9
f 5/5/5 10/11/10 6/8/8
f 7/2/2 10/11/10 11/10/9
f 4/12/11 9/13/12 5/5/5
f 10/11/10 13/14/13 14/15/14
f 10/11/10 15/16/15 11/10/9
f 9/13/12 12/17/16 13/14/13
f 36/18/7 11/10/9 15/16/15
f 14/15/14 19/19/17 15/16/15
f 13/14/13 16/20/18 17/21/19
f 36/22/7 15/16/15 19/19/17
f 13/14/13 18/23/20 14/15/14
f 16/20/18 21/24/21 17/21/19
f 36/25/7 19/19/17 23/26/22
f 17/21/19 22/27/23 18/23/20
f 19/19/17 22/27/23 23/26/22
f 36/28/7 23/26/22 27/29/24
f 21/24/21 26/30/25 22/27/23
f 22/27/23 27/29/24 23/26/22
f 20/31/26 25/32/27 21/24/21
f 27/29/24 30/33/28 31/34/29
f 25/32/27 28/35/30 29/36/31
f 36/37/7 27/29/24 31/34/29
f 26/30/25 29/36/31 30/33/28
f 30/33/28 35/38/32 31/34/29
f 28/35/30 33/39/33 29/36/31
f 36/40/7 31/34/29 35/38/32
f 29/36/31 34/41/34 30/33/28
f 36/42/7 35/38/32 40/43/35
f 33/39/33 39/44/36 34/41/34
f 34/41/34 40/43/35 35/38/32
f 32/45/37 38/46/38 33/39/33
f 36/47/7 40/43/35 44/48/39
f 38/46/38 43/49/40 39/44/36
f 39/44/36 44/48/39 40/43/35
f 37/50/41 42/51/42 38/46/38
f 43/49/40 48/52/43 44/48/39
f 42/51/42 45/53/44 46/54/45
f 36/55/7 44/48/39 48/52/43
f 42/51/42 47/56/46 43/49/40
f 47/56/46 52/57/47 48/52/43
f 46/54/45 49/58/48 50/59/49
f 36/60/7 48/52/43 52/57/47
f 46/54/45 51/61/50 47/56/46
f 45/53/44 116/58/51 49/58/48
f 36/62/7 52/63/47 56/64/52
f 50/65/49 55/66/53 51/67/50
f 49/68/48 120/69/54 53/69/55
f 28/35/30 99/45/56 32/45/37
f 52/63/47 55/66/53 56/64/52
f 49/68/48 54/70/57 50/65/49
f 8/71/58 79/17/59 12/17/16
f 54/70/57 59/72/60 55/66/53
f 12/17/16 83/20/61 16/20/18
f 1/4/4 71/12/62 4/12/11
f 55/66/53 60/73/63 56/64/52
f 54/70/57 57/74/64 58/75/65
f 24/76/66 95/35/67 28/35/30
f 45/53/44 108/77/68 112/53/69
f 36/78/7 56/64/52 60/73/63
f 59/72/60 64/79/70 60/73/63
f 57/74/64 62/80/71 58/75/65
f 37/50/41 108/77/68 41/77/72
f 53/69/55 124/74/73 57/74/64
f 36/81/7 60/73/63 64/79/70
f 59/72/60 62/80/71 63/82/74
f 61/83/75 67/4/76 1/4/4
f 4/12/11 75/71/77 8/71/58
f 61/83/75 2/6/6 62/80/71
f 57/74/64 128/83/78 61/83/75
f 20/31/26 91/76/79 24/76/66
f 36/84/7 64/79/70 3/3/3
f 62/80/71 65/1/1 63/82/74
f 16/20/18 87/31/80 20/31/26
f 32/45/37 104/50/81 37/50/41
f 63/82/74 3/3/3 64/79/70
f 130/85/82 70/86/83 66/87/84
f 129/88/85 100/89/86 68/90/87
f 66/87/84 71/12/62 67/4/76
f 130/85/82 68/90/87 69/91/88
f 68/90/87 100/92/86 72/93/89
f 70/86/83 75/71/77 71/12/62
f 68/90/87 73/94/90 69/91/88
f 69/91/88 74/95/91 70/86/83
f 74/95/91 79/17/59 75/71/77
f 73/94/90 76/96/92 77/97/93
f 73/94/90 78/98/94 74/95/91
f 72/93/89 100/99/86 76/96/92
f 77/97/93 82/100/95 78/98/94
f 76/96/92 100/101/86 80/102/96
f 78/98/94 83/20/61 79/17/59
f 76/96/92 81/103/97 77/97/93
f 81/103/97 86/104/98 82/100/95
f 80/102/96 100/105/86 84/106/99
f 82/100/95 87/31/80 83/20/61
f 81/103/97 84/106/99 85/107/100
f 86/104/98 91/76/79 87/31/80
f 85/107/100 88/108/101 89/109/102
f 85/107/100 90/110/103 86/104/98
f 84/106/99 100/111/86 88/108/101
f 90/110/103 95/35/67 91/76/79
f 88/108/101 93/112/104 89/109/102
f 89/109/102 94/113/105 90/110/103
f 88/108/101 100/114/86 92/115/106
f 93/112/104 98/116/107 94/113/105
f 92/115/106 100/117/86 96/118/108
f 94/113/105 99/45/56 95/35/67
f 93/112/104 96/118/108 97/119/109
f 97/119/109 103/120/110 98/116/107
f 96/118/108 100/121/86 101/122/111
f 98/116/107 104/50/81 99/45/56
f 96/118/108 102/123/112 97/119/109
f 103/120/110 108/77/68 104/50/81
f 102/123/112 105/124/113 106/125/114
f 102/123/112 107/126/115 103/120/110
f 101/122/111 100/127/86 105/124/113
f 105/124/113 110/128/116 106/125/114
f 106/125/114 111/129/117 107/126/115
f 105/124/113 100/130/86 109/131/118
f 107/126/115 112/53/69 108/77/68
f 110/128/116 115/132/119 111/129/117
f 109/131/118 100/133/86 113/134/120
f 111/129/117 116/58/51 112/53/69
f 109/131/118 114/135/121 110/128/116
f 113/136/120 100/137/86 117/138/122
f 115/139/119 120/69/54 116/68/51
f 113/136/120 118/140/123 114/141/121
f 114/141/121 119/142/124 115/139/119
f 119/142/124 124/74/73 120/69/54
f 117/138/122 122/143/125 118/140/123
f 118/140/123 123/144/126 119/142/124
f 117/138/122 100/145/86 121/146/127
f 122/143/125 127/147/128 123/144/126
f 121/146/127 100/148/86 125/149/129
f 123/144/126 128/83/78 124/74/73
f 122/143/125 125/149/129 126/150/130
f 126/150/130 66/87/84 127/147/128
f 125/149/129 100/151/86 129/88/85
f 128/83/78 66/87/84 67/4/76
f 126/150/130 129/88/85 130/85/82
f 65/1/1 6/8/8 7/2/2
f 1/4/4 4/12/11 5/5/5
f 65/1/1 2/6/6 5/5/5
f 5/5/5 9/13/12 10/11/10
f 7/2/2 6/8/8 10/11/10
f 4/12/11 8/71/58 9/13/12
f 10/11/10 9/13/12 13/14/13
f 10/11/10 14/15/14 15/16/15
f 9/13/12 8/71/58 12/17/16
f 14/15/14 18/23/20 19/19/17
f 13/14/13 12/17/16 16/20/18
f 13/14/13 17/21/19 18/23/20
f 16/20/18 20/31/26 21/24/21
f 17/21/19 21/24/21 22/27/23
f 19/19/17 18/23/20 22/27/23
f 21/24/21 25/32/27 26/30/25
f 22/27/23 26/30/25 27/29/24
f 20/31/26 24/76/66 25/32/27
f 27/29/24 26/30/25 30/33/28
f 25/32/27 24/76/66 28/35/30
f 26/30/25 25/32/27 29/36/31
f 30/33/28 34/41/34 35/38/32
f 28/35/30 32/45/37 33/39/33
f 29/36/31 33/39/33 34/41/34
f 33/39/33 38/46/38 39/44/36
f 34/41/34 39/44/36 40/43/35
f 32/45/37 37/50/41 38/46/38
f 38/46/38 42/51/42 43/49/40
f 39/44/36 43/49/40 44/48/39
f 37/50/41 41/77/72 42/51/42
f 43/49/40 47/56/46 48/52/43
f 42/51/42 41/77/72 45/53/44
f 42/51/42 46/54/45 47/56/46
f 47/56/46 51/61/50 52/57/47
f 46/54/45 45/53/44 49/58/48
f 46/54/45 50/59/49 51/61/50
f 45/53/44 112/53/69 116/58/51
f 50/65/49 54/70/57 55/66/53
f 49/68/48 116/68/51 120/69/54
f 28/35/30 95/35/67 99/45/56
f 52/63/47 51/67/50 55/66/53
f 49/68/48 53/69/55 54/70/57
f 8/71/58 75/71/77 79/17/59
f 54/70/57 58/75/65 59/72/60
f 12/17/16 79/17/59 83/20/61
f 1/4/4 67/4/76 71/12/62
f 55/66/53 59/72/60 60/73/63
f 54/70/57 53/69/55 57/74/64
f 24/76/66 91/76/79 95/35/67
f 45/53/44 41/77/72 108/77/68
f 59/72/60 63/82/74 64/79/70
f 57/74/64 61/83/75 62/80/71
f 37/50/41 104/50/81 108/77/68
f 53/69/55 120/69/54 124/74/73
f 59/72/60 58/75/65 62/80/71
f 61/83/75 128/83/78 67/4/76
f 4/12/11 71/12/62 75/71/77
f 61/83/75 1/4/4 2/6/6
f 57/74/64 124/74/73 128/83/78
f 20/31/26 87/31/80 91/76/79
f 62/80/71 2/6/6 65/1/1
f 16/20/18 83/20/61 87/31/80
f 32/45/37 99/45/56 104/50/81
f 63/82/74 65/1/1 3/3/3
f 130/85/82 69/91/88 70/86/83
f 66/87/84 70/86/83 71/12/62
f 130/85/82 129/88/85 68/90/87
f 70/86/83 74/95/91 75/71/77
f 68/90/87 72/93/89 73/94/90
f 69/91/88 73/94/90 74/95/91
f 74/95/91 78/98/94 79/17/59
f 73/94/90 72/93/89 76/96/92
f 73/94/90 77/97/93 78/98/94
f 77/97/93 81/103/97 82/100/95
f 78/98/94 82/100/95 83/20/61
f 76/96/92 80/102/96 81/103/97
f 81/103/97 85/107/100 86/104/98
f 82/100/95 86/104/98 87/31/80
f 81/103/97 80/102/96 84/106/99
f 86/104/98 90/110/103 91/76/79
f 85/107/100 84/106/99 88/108/101
f 85/107/100 89/109/102 90/110/103
f 90/110/103 94/113/105 95/35/67
f 88/108/101 92/115/106 93/112/104
f 89/109/102 93/112/104 94/113/105
f 93/112/104 97/119/109 98/116/107
f 94/113/105 98/116/107 99/45/56
f 93/112/104 92/115/106 96/118/108
f 97/119/109 102/123/112 103/120/110
f 98/116/107 103/120/110 104/50/81
f 96/118/108 101/122/111 102/123/112
f 103/120/110 107/126/115 108/77/68
f 102/123/112 101/122/111 105/124/113
f 102/123/112 106/125/114 107/126/115
f 105/124/113 109/131/118 110/128/116
f 106/125/114 110/128/116 111/129/117
f 107/126/115 111/129/117 112/53/69
f 110/128/116 114/135/121 115/132/119
f 111/129/117 115/132/119 116/58/51
f 109/131/118 113/134/120 114/135/121
f 115/139/119 119/142/124 120/69/54
f 113/136/120 117/138/122 118/140/123
f 114/141/121 118/140/123 119/142/124
f 119/142/124 123/144/126 124/74/73
f 117/138/122 121/146/127 122/143/125
f 118/140/123 122/143/125 123/144/126
f 122/143/125 126/150/130 127/147/128
f 123/144/126 127/147/128 128/83/78
f 122/143/125 121/146/127 125/149/129
f 126/150/130 130/85/82 66/87/84
f 128/83/78 127/147/128 66/87/84
f 126/150/130 125/149/129 129/88/85
