# Blender 4.0.2
# www.blender.org
o Cylinder
v 0.824228 -3.572711 3.563375
v -0.543871 -19.556185 -0.260971
v 0.536865 -3.915260 3.153514
v -0.499083 -19.448374 0.362941
v 0.794373 -4.025272 2.613911
v 0.039810 -19.379099 0.596811
v 1.330414 -3.771540 2.476528
v 0.545682 -19.425739 0.261641
v 1.613482 -3.421253 2.882683
v 0.504282 -19.505407 -0.338509
v 1.353674 -3.311715 3.422358
v -0.037989 -19.621490 -0.592509
v -0.574700 -0.686050 1.534140
v -0.810696 1.180810 -1.527905
v -1.338315 2.134873 -5.069643
v -2.441258 0.836845 -8.223328
v -3.769061 -2.047894 -9.996651
v -4.054986 -5.861089 -9.465790
v -3.005615 -8.756711 -7.589901
v -1.994561 -11.041377 -5.106877
v -1.340726 -13.209405 -2.588869
v -0.848749 -16.237720 -0.975052
v -0.766715 -1.139316 1.178261
v -0.997681 0.646031 -1.747003
v -1.477250 1.570480 -4.892519
v -2.502834 0.388931 -7.818417
v -3.710847 -2.250242 -9.427030
v -3.850828 -5.548091 -8.988808
v -2.847397 -8.335144 -7.182701
v -1.870192 -10.567163 -4.748101
v -1.239713 -12.856874 -2.105977
v -0.772217 -16.000593 -0.420152
v -0.362394 -1.495355 0.895916
v -0.598495 0.265842 -2.002668
v -1.056521 1.132657 -4.912733
v -2.046677 -0.003895 -7.727029
v -3.198146 -2.528862 -9.255604
v -3.272347 -5.362112 -8.970358
v -2.295294 -8.087260 -7.201139
v -1.317018 -10.316478 -4.760515
v -0.678175 -12.655572 -1.988974
v -0.220422 -15.824064 -0.241059
v 0.230630 -1.388765 0.958548
v -0.006098 0.395814 -1.988459
v -0.493940 1.261556 -5.102003
v -1.529478 0.055337 -8.040812
v -2.727482 -2.558018 -9.637176
v -2.896045 -5.496872 -9.428070
v -1.893982 -8.270199 -7.620518
v -0.879909 -10.560927 -5.105560
v -0.217552 -12.814867 -2.350029
v 0.262558 -15.935360 -0.592698
v 0.422870 -0.941315 1.322271
v 0.184556 0.921204 -1.749632
v -0.355556 1.824304 -5.283444
v -1.470581 0.500225 -8.449677
v -2.775823 -2.329382 -10.196647
v -3.096909 -5.819116 -9.902897
v -2.048579 -8.697546 -8.022573
v -1.003675 -11.042281 -5.455085
v -0.319886 -13.155805 -2.841059
v 0.185317 -16.165981 -1.149400
v -0.369536 -16.315554 -1.340537
v -0.880889 -13.364607 -2.953941
v -1.564036 -11.276491 -5.462757
v -2.611350 -8.926821 -8.019643
v -3.677055 -5.998184 -9.922455
v -3.297380 -2.072887 -10.376646
v -1.924772 0.894873 -8.537388
v -0.773836 2.263923 -5.251747
v -0.218579 1.319314 -1.529787
v 0.019584 -0.583330 1.600288
vn -0.5543 -0.2235 -0.8018
vn -0.9948 -0.0602 0.0818
vn -0.4110 0.1805 0.8936
vn 0.6069 0.2351 0.7592
vn 0.9856 0.0554 -0.1597
vn 0.7446 0.5729 0.3424
vn 0.0597 -0.9849 0.1627
vn 0.4668 -0.7998 0.3774
vn 0.4476 -0.1704 -0.8778
vn 0.3930 -0.3995 -0.8282
vn 0.3778 -0.6692 -0.6399
vn 0.2809 -0.6490 -0.7070
vn 0.1936 -0.4862 -0.8522
vn 0.0709 -0.1214 -0.9901
vn 0.4442 0.3145 -0.8389
vn 0.6273 0.6160 -0.4764
vn 0.7253 0.6854 0.0643
vn 0.7481 0.5916 0.3006
vn 0.8113 0.0219 -0.5843
vn 0.9485 -0.2329 -0.2148
vn 0.9460 -0.2487 -0.2081
vn 0.9307 -0.3066 -0.1995
vn 0.9308 -0.3032 -0.2043
vn 0.9867 -0.1015 -0.1267
vn 0.9056 0.0551 -0.4205
vn 0.9295 0.0106 -0.3686
vn 0.9581 -0.0406 -0.2834
vn 0.9731 0.0355 -0.2275
vn 0.0316 -0.5266 -0.8495
vn 0.2040 -0.8301 -0.5190
vn 0.2116 -0.9326 -0.2925
vn 0.2754 -0.9195 0.2804
vn 0.4619 -0.6069 0.6468
vn 0.6304 0.0191 0.7761
vn 0.7203 0.5422 0.4326
vn 0.6614 0.6678 0.3416
vn 0.6598 0.6515 0.3743
vn 0.6423 0.4488 0.6214
vn -0.7442 -0.5732 -0.3430
vn -0.7514 -0.5893 -0.2969
vn -0.7201 -0.6878 -0.0915
vn -0.6250 -0.6224 0.4712
vn -0.4372 -0.3114 0.8437
vn -0.2644 0.1035 0.9589
vn -0.1897 0.4859 0.8532
vn -0.2790 0.6507 0.7062
vn -0.3732 0.6648 0.6471
vn -0.3961 0.3990 0.8270
vn -0.8581 -0.0386 0.5121
vn -0.9453 0.2399 0.2211
vn -0.9260 0.2999 0.2293
vn -0.9327 0.2948 0.2079
vn -0.9314 0.3062 0.1971
vn -0.9350 0.0854 0.3442
vn -0.9084 -0.0588 0.4139
vn -0.9349 -0.0229 0.3543
vn -0.9759 -0.0180 0.2173
vn -0.9851 -0.0599 0.1615
vn -0.1812 0.5053 0.8437
vn -0.1928 0.8311 0.5216
vn -0.2175 0.9338 0.2840
vn -0.2972 0.9151 -0.2727
vn -0.4777 0.6091 -0.6331
vn -0.7744 -0.0299 -0.6319
vn -0.7144 -0.5440 -0.4401
vn -0.6549 -0.6699 -0.3497
vn -0.5804 -0.6855 -0.4396
vn -0.5860 -0.4532 -0.6718
vn -0.6134 -0.2323 -0.7548
vn -0.9855 -0.0561 0.1599
vn -0.3553 0.1802 0.9172
vn 0.5522 0.2293 0.8015
vn 0.9951 0.0619 -0.0769
vn 0.7850 0.5603 0.2642
vn 0.0678 -0.9542 0.2914
vn -0.0040 -0.9913 0.1319
vn 0.0544 -0.9846 0.1662
vn 0.4515 -0.8068 0.3811
vn 0.4868 -0.8074 0.3335
vn 0.4737 -0.7910 0.3873
vn 0.3618 -0.1711 -0.9164
vn 0.3241 -0.4100 -0.8526
vn 0.2983 -0.6921 -0.6573
vn 0.2629 -0.6544 -0.7090
vn 0.1797 -0.4891 -0.8535
vn 0.2775 -0.1059 -0.9549
vn 0.4381 0.3172 -0.8411
vn 0.6187 0.6231 -0.4785
vn 0.7196 0.6911 0.0680
vn 0.7413 0.5971 0.3065
vn 0.8504 0.0595 -0.5227
vn 0.9445 -0.2417 -0.2223
vn 0.9256 -0.3014 -0.2288
vn 0.9325 -0.2961 -0.2071
vn 0.9312 -0.3057 -0.1985
vn 0.9361 -0.0781 -0.3430
vn 0.9089 0.0594 -0.4127
vn 0.9335 0.0200 -0.3581
vn 0.9758 0.0206 -0.2177
vn 0.9850 0.0605 -0.1617
vn 0.1788 -0.4955 -0.8500
vn 0.1948 -0.8311 -0.5209
vn 0.1159 -0.9468 -0.3003
vn 0.2992 -0.9167 0.2649
vn 0.4790 -0.6040 0.6370
vn 0.7779 0.0427 0.6269
vn 0.7121 0.5437 0.4442
vn 0.6527 0.6712 0.3514
vn 0.5823 0.6825 0.4418
vn 0.5905 0.4536 0.6675
vn -0.7880 -0.5569 -0.2625
vn -0.7406 -0.5980 -0.3065
vn -0.7174 -0.6904 -0.0935
vn -0.6281 -0.6199 0.4705
vn -0.4476 -0.3070 0.8399
vn -0.0747 0.1345 0.9881
vn -0.1838 0.4871 0.8538
vn -0.2697 0.6534 0.7073
vn -0.2959 0.6858 0.6649
vn -0.3244 0.4091 0.8529
vn -0.8205 0.0043 0.5717
vn -0.9484 0.2329 0.2151
vn -0.9468 0.2461 0.2073
vn -0.9305 0.3076 0.1988
vn -0.9309 0.3037 0.2030
vn -0.9867 0.0926 0.1337
vn -0.9047 -0.0540 0.4227
vn -0.9289 -0.0089 0.3701
vn -0.9587 0.0382 0.2818
vn -0.9726 -0.0357 0.2295
vn -0.0426 0.5404 0.8403
vn -0.2014 0.8301 0.5199
vn -0.1338 0.9556 0.2625
vn -0.2767 0.9176 -0.2854
vn -0.4601 0.6117 -0.6436
vn -0.6280 -0.0292 -0.7776
vn -0.7197 -0.5430 -0.4326
vn -0.6613 -0.6674 -0.3425
vn -0.6605 -0.6557 -0.3659
vn -0.6435 -0.4500 -0.6192
vt 0.166667 0.545455
vt -0.000000 0.500000
vt 0.166667 0.500000
vt 0.333333 0.545455
vt 0.333333 0.500000
vt 0.500000 0.545455
vt 0.500000 0.500000
vt 0.666667 0.500000
vt 0.666667 0.545455
vt 0.833333 0.500000
vt 0.833333 0.545455
vt 1.000000 0.954545
vt 0.833333 1.000000
vt 0.833333 0.954545
vt 0.957846 0.370000
vt 0.750000 0.010000
vt 0.542154 0.370000
vt 0.250000 0.490000
vt 0.042154 0.130000
vt 0.457846 0.130000
vt 1.000000 0.500000
vt 1.000000 0.545455
vt 0.833333 0.590909
vt 1.000000 0.590909
vt 0.833333 0.636364
vt 1.000000 0.636364
vt 0.833333 0.681818
vt 1.000000 0.681818
vt 0.833333 0.727273
vt 1.000000 0.772727
vt 1.000000 0.727273
vt 1.000000 0.818182
vt 0.833333 0.772727
vt 1.000000 0.863636
vt 0.833333 0.818182
vt 0.833333 0.909091
vt 0.833333 0.863636
vt 1.000000 0.909091
vt 0.666667 1.000000
vt 0.666667 0.954545
vt 0.666667 0.909091
vt 0.666667 0.818182
vt 0.666667 0.772727
vt 0.666667 0.727273
vt 0.666667 0.681818
vt 0.666667 0.636364
vt 0.666667 0.590909
vt 0.500000 1.000000
vt 0.500000 0.954545
vt 0.500000 0.909091
vt 0.666667 0.863636
vt 0.500000 0.818182
vt 0.500000 0.772727
vt 0.500000 0.727273
vt 0.500000 0.681818
vt 0.500000 0.636364
vt 0.500000 0.590909
vt 0.333333 0.954545
vt 0.333333 0.909091
vt 0.333333 0.863636
vt 0.500000 0.863636
vt 0.333333 0.818182
vt 0.333333 0.772727
vt 0.333333 0.681818
vt 0.333333 0.636364
vt 0.333333 0.590909
vt 0.333333 1.000000
vt 0.166667 0.954545
vt 0.166667 0.909091
vt 0.166667 0.863636
vt 0.166667 0.818182
vt 0.166667 0.727273
vt 0.333333 0.727273
vt 0.166667 0.681818
vt 0.166667 0.636364
vt 0.166667 0.590909
vt 0.166667 1.000000
vt -0.000000 0.954545
vt -0.000000 0.909091
vt -0.000000 0.863636
vt -0.000000 0.772727
vt 0.166667 0.772727
vt -0.000000 0.727273
vt -0.000000 0.681818
vt -0.000000 0.636364
vt -0.000000 0.590909
vt -0.000000 0.545455
vt 1.000000 1.000000
vt 0.750000 0.490000
vt 0.957846 0.130000
vt 0.542154 0.130000
vt 0.457846 0.370000
vt 0.042154 0.370000
vt 0.250000 0.010000
vt -0.000000 1.000000
vt -0.000000 0.818182
s 0
g Bone
f 22/1/1 12/2/1 2/3/1
f 32/4/2 2/3/2 4/5/2
f 42/6/3 4/5/3 6/7/3
g Bone.001
f 42/6/4 8/8/4 52/9/4
f 52/9/5 10/10/5 62/11/5
g Bone.014
f 72/12/6 9/13/6 53/14/6
g Bone
f 10/15/7 6/16/7 2/17/7
g Bone.015
f 11/18/8 3/19/8 7/20/8
g Bone
f 12/21/9 62/11/9 10/10/9
g Bone.001
f 63/22/10 61/23/10 62/11/10
g Bone.002
f 64/24/11 60/25/11 61/23/11
g Bone.005
f 65/26/12 59/27/12 60/25/12
g Bone.006
f 66/28/13 58/29/13 59/27/13
g Bone.007
f 68/30/14 58/29/14 67/31/14
g Bone.009
f 69/32/15 57/33/15 68/30/15
g Bone.010
f 70/34/16 56/35/16 69/32/16
g Bone.011
f 70/34/17 54/36/17 55/37/17
g Bone.013
f 71/38/18 53/14/18 54/36/18
g Bone.015
f 7/39/19 53/14/19 9/13/19
g Bone.014
f 43/40/20 54/36/20 53/14/20
g Bone.013
f 44/41/21 55/37/21 54/36/21
g Bone.010
f 55/37/22 46/42/22 56/35/22
g Bone.009
f 56/35/23 47/43/23 57/33/23
f 47/43/24 58/29/24 57/33/24
g Bone.007
f 48/44/25 59/27/25 58/29/25
g Bone.006
f 49/45/26 60/25/26 59/27/26
g Bone.005
f 50/46/27 61/23/27 60/25/27
g Bone.002
f 51/47/28 62/11/28 61/23/28
g Bone.015
f 5/48/29 43/40/29 7/39/29
g Bone.014
f 33/49/30 44/41/30 43/40/30
g Bone.013
f 34/50/31 45/51/31 44/41/31
g Bone.010
f 45/51/32 36/52/32 46/42/32
f 36/52/33 47/43/33 46/42/33
g Bone.009
f 37/53/34 48/44/34 47/43/34
g Bone.007
f 38/54/35 49/45/35 48/44/35
g Bone.006
f 39/55/36 50/46/36 49/45/36
g Bone.005
f 40/56/37 51/47/37 50/46/37
g Bone.002
f 41/57/38 52/9/38 51/47/38
g Bone.014
f 5/48/39 23/58/39 33/49/39
g Bone.013
f 33/49/40 24/59/40 34/50/40
g Bone.011
f 34/50/41 25/60/41 35/61/41
f 25/60/42 36/52/42 35/61/42
g Bone.010
f 26/62/43 37/53/43 36/52/43
g Bone.009
f 27/63/44 38/54/44 37/53/44
g Bone.006
f 38/54/45 29/64/45 39/55/45
g Bone.005
f 39/55/46 30/65/46 40/56/46
g Bone.002
f 40/56/47 31/66/47 41/57/47
g Bone.001
f 41/57/48 32/4/48 42/6/48
g Bone.014
f 3/67/49 13/68/49 23/58/49
g Bone.013
f 23/58/50 14/69/50 24/59/50
g Bone.011
f 24/59/51 15/70/51 25/60/51
f 15/70/52 26/62/52 25/60/52
g Bone.010
f 16/71/53 27/63/53 26/62/53
g Bone.007
f 27/63/54 18/72/54 28/73/54
g Bone.006
f 28/73/55 19/74/55 29/64/55
g Bone.005
f 29/64/56 20/75/56 30/65/56
g Bone.002
f 30/65/57 21/76/57 31/66/57
g Bone.001
f 31/66/58 22/1/58 32/4/58
g Bone.014
f 1/77/59 72/78/59 13/68/59
g Bone.013
f 13/68/60 71/79/60 14/69/60
f 71/79/61 15/70/61 14/69/61
g Bone.011
f 70/80/62 16/71/62 15/70/62
g Bone.009
f 16/71/63 68/81/63 17/82/63
g Bone.007
f 17/82/64 67/83/64 18/72/64
g Bone.006
f 18/72/65 66/84/65 19/74/65
g Bone.005
f 19/74/66 65/85/66 20/75/66
g Bone.002
f 20/75/67 64/86/67 21/76/67
g Bone.001
f 21/76/68 63/87/68 22/1/68
f 22/1/69 63/87/69 12/2/69
f 32/4/70 22/1/70 2/3/70
f 42/6/71 32/4/71 4/5/71
g Bone
f 42/6/72 6/7/72 8/8/72
f 52/9/73 8/8/73 10/10/73
g Bone.015
f 72/12/74 11/88/74 9/13/74
g Bone
f 2/17/75 12/89/75 10/15/75
f 10/15/76 8/90/76 6/16/76
f 6/16/77 4/91/77 2/17/77
g Bone.015
f 7/20/78 9/92/78 11/18/78
f 11/18/79 1/93/79 3/19/79
f 3/19/80 5/94/80 7/20/80
g Bone.001
f 12/21/81 63/22/81 62/11/81
g Bone.002
f 63/22/82 64/24/82 61/23/82
g Bone.005
f 64/24/83 65/26/83 60/25/83
g Bone.006
f 65/26/84 66/28/84 59/27/84
g Bone.007
f 66/28/85 67/31/85 58/29/85
g Bone.009
f 68/30/86 57/33/86 58/29/86
g Bone.010
f 69/32/87 56/35/87 57/33/87
g Bone.011
f 70/34/88 55/37/88 56/35/88
g Bone.013
f 70/34/89 71/38/89 54/36/89
g Bone.014
f 71/38/90 72/12/90 53/14/90
f 7/39/91 43/40/91 53/14/91
g Bone.013
f 43/40/92 44/41/92 54/36/92
g Bone.011
f 44/41/93 45/51/93 55/37/93
f 55/37/94 45/51/94 46/42/94
g Bone.010
f 56/35/95 46/42/95 47/43/95
g Bone.007
f 47/43/96 48/44/96 58/29/96
g Bone.006
f 48/44/97 49/45/97 59/27/97
g Bone.005
f 49/45/98 50/46/98 60/25/98
g Bone.002
f 50/46/99 51/47/99 61/23/99
g Bone.001
f 51/47/100 52/9/100 62/11/100
g Bone.014
f 5/48/101 33/49/101 43/40/101
g Bone.013
f 33/49/102 34/50/102 44/41/102
g Bone.011
f 34/50/103 35/61/103 45/51/103
f 45/51/104 35/61/104 36/52/104
g Bone.009
f 36/52/105 37/53/105 47/43/105
g Bone.007
f 37/53/106 38/54/106 48/44/106
g Bone.006
f 38/54/107 39/55/107 49/45/107
g Bone.005
f 39/55/108 40/56/108 50/46/108
g Bone.002
f 40/56/109 41/57/109 51/47/109
g Bone.001
f 41/57/110 42/6/110 52/9/110
g Bone.015
f 5/48/111 3/67/111 23/58/111
g Bone.014
f 33/49/112 23/58/112 24/59/112
g Bone.013
f 34/50/113 24/59/113 25/60/113
g Bone.010
f 25/60/114 26/62/114 36/52/114
g Bone.009
f 26/62/115 27/63/115 37/53/115
g Bone.007
f 27/63/116 28/73/116 38/54/116
f 38/54/117 28/73/117 29/64/117
g Bone.006
f 39/55/118 29/64/118 30/65/118
g Bone.005
f 40/56/119 30/65/119 31/66/119
g Bone.002
f 41/57/120 31/66/120 32/4/120
g Bone.015
f 3/67/121 1/77/121 13/68/121
g Bone.014
f 23/58/122 13/68/122 14/69/122
g Bone.013
f 24/59/123 14/69/123 15/70/123
g Bone.010
f 15/70/124 16/71/124 26/62/124
g Bone.009
f 16/71/125 17/82/125 27/63/125
f 27/63/126 17/82/126 18/72/126
g Bone.007
f 28/73/127 18/72/127 19/74/127
g Bone.006
f 29/64/128 19/74/128 20/75/128
g Bone.005
f 30/65/129 20/75/129 21/76/129
g Bone.002
f 31/66/130 21/76/130 22/1/130
g Bone.015
f 1/77/131 11/95/131 72/78/131
g Bone.014
f 13/68/132 72/78/132 71/79/132
g Bone.011
f 71/79/133 70/80/133 15/70/133
g Bone.010
f 70/80/134 69/96/134 16/71/134
f 16/71/135 69/96/135 68/81/135
g Bone.009
f 17/82/136 68/81/136 67/83/136
g Bone.007
f 18/72/137 67/83/137 66/84/137
g Bone.006
f 19/74/138 66/84/138 65/85/138
g Bone.005
f 20/75/139 65/85/139 64/86/139
g Bone.002
f 21/76/140 64/86/140 63/87/140
