# Blender 5.1.2
# www.blender.org
mtllib drill_head.mtl
o head
v 0.009180 0.632129 0.154431
v -0.000027 0.416237 0.152423
v 0.169306 0.521675 -0.142459
v -0.186476 0.525971 -0.130316
v -0.484051 0.334858 0.214168
v -0.322426 0.215416 0.212241
v -0.313863 0.403618 -0.070846
v -0.506033 0.125543 -0.059189
v -0.516590 -0.208217 0.271516
v -0.338674 -0.142946 0.269666
v -0.479284 -0.038401 -0.002098
v -0.366818 -0.334305 0.009093
v -0.115001 -0.516060 0.326570
v -0.070902 -0.341968 0.324794
v -0.226174 -0.398423 0.063901
v 0.061749 -0.463581 0.074644
v 0.335602 -0.359631 0.379421
v 0.224738 -0.234421 0.377717
v 0.185859 -0.386091 0.127259
v 0.388950 -0.193106 0.137573
v 0.454143 0.076670 0.430159
v 0.298722 0.054389 0.428523
v 0.395064 -0.055056 0.188083
v 0.354023 0.205235 0.197984
v 0.180557 0.396786 0.478867
v 0.115241 0.262757 0.477296
v 0.250794 0.281788 0.246475
v 0.028252 0.384713 0.255979
v -0.211566 0.347584 0.525627
v -0.142864 0.226477 0.524119
v -0.085588 0.343164 0.302530
v -0.283101 0.221316 0.311655
v -0.381765 0.013077 0.570517
v -0.251889 0.004272 0.569069
v -0.311484 0.110034 0.356344
v -0.322349 -0.108897 0.365103
v -0.214113 -0.294841 0.613611
v -0.138381 -0.197092 0.612220
v -0.251586 -0.189086 0.408004
v -0.088497 -0.311413 0.416414
v 0.112371 -0.322762 0.654981
v 0.077180 -0.212301 0.653646
v 0.010913 -0.297331 0.457599
v 0.191832 -0.232406 0.465672
v 0.307211 -0.080047 0.694696
v 0.203334 -0.050372 0.693415
v 0.233740 -0.146767 0.505209
v 0.279701 0.029511 0.512959
v 0.223435 0.199586 0.732823
v 0.145407 0.133166 0.731593
v 0.235895 0.107031 0.550915
v 0.124332 0.234843 0.558355
v -0.036710 0.278892 0.769424
v -0.026900 0.182902 0.768244
v 0.041290 0.240613 0.594793
v -0.116509 0.219134 0.601936
v -0.235967 0.115145 0.804562
v -0.156725 0.072993 0.803429
v -0.165039 0.156706 0.636916
v -0.232236 0.021221 0.643773
v -0.215442 -0.126934 0.838294
v -0.140868 -0.086405 0.837206
v -0.209848 -0.049454 0.677354
v -0.141021 -0.172801 0.683937
v -0.017838 -0.236557 0.870677
v -0.009511 -0.156743 0.869632
v -0.074626 -0.191888 0.716175
v 0.057043 -0.201758 0.722494
v 0.171605 -0.137838 0.901764
v 0.114466 -0.089802 0.900762
v 0.107008 -0.159367 0.753442
v 0.184513 -0.060758 0.759508
v 0.196025 0.062717 0.931608
v 0.128646 0.042661 0.930646
v 0.178341 0.000636 0.789219
v 0.143428 0.112941 0.795043
v 0.639980 -0.001786 -0.174523
v 0.452534 -0.454320 -0.174523
v 0.000000 -0.641766 -0.174523
v -0.452534 -0.454320 -0.174523
v -0.639980 -0.001786 -0.174523
v -0.452534 0.450748 -0.174523
v -0.000000 0.638194 -0.174523
v 0.452534 0.450748 -0.174523
v 0.000000 -0.001786 -0.413072
v 0.000000 -0.001786 1.155960
v -0.124096 0.122310 0.823339
v -0.233575 0.231789 0.490719
v -0.343055 0.341269 0.158098
v -0.485153 -0.001786 0.158098
v -0.330325 -0.001786 0.490719
v -0.175498 -0.001786 0.823339
v -0.124096 -0.125882 0.823339
v -0.233575 -0.235361 0.490719
v -0.343055 -0.344841 0.158098
v 0.000000 -0.486939 0.158098
v 0.000000 -0.332111 0.490719
v 0.000000 -0.177284 0.823339
v 0.124096 -0.125882 0.823339
v 0.233575 -0.235361 0.490719
v 0.343055 -0.344841 0.158098
v 0.485153 -0.001786 0.158098
v 0.330325 -0.001786 0.490719
v 0.175498 -0.001786 0.823339
v 0.343055 0.341269 0.158098
v 0.233575 0.231789 0.490719
v 0.124096 0.122310 0.823339
v 0.000000 0.173712 0.823339
v 0.000000 0.328539 0.490719
v -0.000000 0.483367 0.158098
v 0.009180 0.632129 0.154431
v -0.000027 0.416237 0.152423
v 0.169306 0.521675 -0.142459
v -0.186476 0.525971 -0.130316
vn -0.8290 0.0302 0.5584
vn 0.8728 -0.0417 0.4863
vn -0.0006 0.9371 -0.3490
vn -0.4904 -0.6725 0.5544
vn 0.5243 0.7017 0.4824
vn -0.7804 0.5251 -0.3393
vn 0.2938 -0.7853 0.5450
vn -0.2990 0.8285 0.4734
vn -0.8767 -0.3459 -0.3342
vn 0.8210 -0.2025 0.5338
vn -0.8582 0.2221 0.4627
vn -0.1966 -0.9232 -0.3302
vn 0.6316 0.5664 0.5293
vn -0.6685 -0.5856 0.4584
vn 0.6608 -0.6783 -0.3213
vn -0.1264 0.8437 0.5217
vn 0.1220 -0.8840 0.4513
vn 0.9356 0.1595 -0.3151
vn -0.7757 0.3720 0.5099
vn 0.8052 -0.3975 0.4401
vn 0.3878 0.8673 -0.3120
vn -0.7483 -0.4308 0.5044
vn 0.7856 0.4402 0.4349
vn -0.5103 0.8044 -0.3041
vn -0.0531 -0.8653 0.4984
vn 0.0659 0.9007 0.4294
vn -0.9542 0.0355 -0.2971
vn 0.6939 -0.5307 0.4866
vn -0.7151 0.5600 0.4184
vn -0.5637 -0.7718 -0.2942
vn 0.8343 0.2716 0.4798
vn -0.8696 -0.2721 0.4120
vn 0.3348 -0.8973 -0.2877
vn 0.2363 0.8476 0.4752
vn -0.2555 -0.8766 0.4077
vn 0.9319 -0.2306 -0.2801
vn -0.5784 0.6709 0.4641
vn 0.5911 -0.7018 0.3976
vn 0.7158 0.6409 -0.2771
vn -0.8849 -0.0960 0.4558
vn 0.9166 0.0889 0.3899
vn -0.1419 0.9518 -0.2720
vn -0.4139 -0.7902 0.4520
vn 0.4375 0.8120 0.3864
vn -0.8693 0.4178 -0.2642
vn 0.4332 -0.7853 0.4422
vn -0.4379 0.8159 0.3776
vn -0.8371 -0.4810 -0.2607
vn 0.8972 -0.0879 0.4327
vn -0.9240 0.1012 0.3689
vn -0.0600 -0.9646 -0.2568
vn 0.5769 0.6951 0.4290
vn -0.6027 -0.7093 0.3655
vn 0.7688 -0.5889 -0.2493
vn -0.2643 0.8677 0.4209
vn 0.2616 -0.8962 0.3582
vn 0.9221 0.2994 -0.2451
vn 0.3493 -0.0000 -0.9370
vn -0.0000 -0.0000 -1.0000
vn 0.2470 0.2470 -0.9370
vn -0.0000 0.3493 -0.9370
vn -0.2470 0.2470 -0.9370
vn -0.0000 -0.3493 -0.9370
vn -0.2470 -0.2470 -0.9370
vn -0.3493 -0.0000 -0.9370
vn 0.2470 -0.2470 -0.9370
vn 0.6343 0.6343 0.4421
vn -0.0000 0.8970 0.4421
vn -0.0000 -0.0000 1.0000
vn -0.0000 -0.8970 0.4421
vn 0.6343 -0.6343 0.4421
vn -0.8970 -0.0000 0.4421
vn -0.6343 -0.6343 0.4421
vn -0.6343 0.6343 0.4421
vn 0.8970 -0.0000 0.4421
vn -0.6411 0.6411 0.4220
vn -0.9066 -0.0000 0.4220
vn -0.0000 -0.9066 0.4220
vn -0.6411 -0.6411 0.4220
vn 0.9066 -0.0000 0.4220
vn 0.6411 -0.6411 0.4220
vn 0.6411 0.6411 0.4220
vn -0.0000 0.9066 0.4220
vt 0.694719 0.853194
vt 0.714361 0.757812
vt 0.854656 0.840553
vt 0.854177 0.680118
vt 0.694719 0.662431
vt 0.504133 0.303127
vt 0.718396 0.214377
vt 0.629645 0.428639
vt 0.807146 0.428639
vt 0.932659 0.303127
vt 0.629645 0.000114
vt 0.807146 0.000114
vt 0.932659 0.125626
vt 0.504133 0.125626
vt 0.390643 0.547326
vt 0.375558 0.504767
vt 0.502926 0.483987
vt 0.503906 0.615647
vt 0.458215 0.606347
vt 0.392073 0.417075
vt 0.421733 0.382183
vt 0.376139 0.459567
vt 0.419093 0.582580
vt 0.462058 0.359001
vt 0.000114 0.394719
vt 0.170583 0.293161
vt 0.127418 0.416282
vt 0.253253 0.437905
vt 0.282778 0.355269
vt 0.311008 0.000114
vt 0.252007 0.190590
vt 0.164660 0.094362
vt 0.362822 0.119688
vt 0.338253 0.286578
vt 0.413803 0.239392
vt 0.164446 0.866495
vt 0.360264 0.840858
vt 0.309623 0.959123
vt 0.250728 0.771035
vt 0.410322 0.723151
vt 0.336221 0.676223
vt 0.170140 0.669097
vt 0.281678 0.607837
vt 0.000114 0.567775
vt 0.127336 0.546401
vt 0.253084 0.525297
vt 0.056989 0.230877
vt 0.476575 0.999886
vt 0.486452 0.871531
vt 0.495930 0.743445
vt 0.057075 0.731198
s 0
usemtl Material
f 2/1/1 1/2/1 4/3/1
f 3/4/2 1/2/2 2/5/2
f 4/3/3 1/2/3 3/4/3
f 6/1/4 5/2/4 8/3/4
f 7/4/5 5/2/5 6/5/5
f 8/3/6 5/2/6 7/4/6
f 10/1/7 9/2/7 12/3/7
f 11/4/8 9/2/8 10/5/8
f 12/3/9 9/2/9 11/4/9
f 14/1/10 13/2/10 16/3/10
f 15/4/11 13/2/11 14/5/11
f 16/3/12 13/2/12 15/4/12
f 18/1/13 17/2/13 20/3/13
f 19/4/14 17/2/14 18/5/14
f 20/3/15 17/2/15 19/4/15
f 22/1/16 21/2/16 24/3/16
f 23/4/17 21/2/17 22/5/17
f 24/3/18 21/2/18 23/4/18
f 26/1/19 25/2/19 28/3/19
f 27/4/20 25/2/20 26/5/20
f 28/3/21 25/2/21 27/4/21
f 30/1/22 29/2/22 32/3/22
f 31/4/23 29/2/23 30/5/23
f 32/3/24 29/2/24 31/4/24
f 34/1/25 33/2/25 36/3/25
f 35/4/26 33/2/26 34/5/26
f 36/3/27 33/2/27 35/4/27
f 38/1/28 37/2/28 40/3/28
f 39/4/29 37/2/29 38/5/29
f 40/3/30 37/2/30 39/4/30
f 42/1/31 41/2/31 44/3/31
f 43/4/32 41/2/32 42/5/32
f 44/3/33 41/2/33 43/4/33
f 46/1/34 45/2/34 48/3/34
f 47/4/35 45/2/35 46/5/35
f 48/3/36 45/2/36 47/4/36
f 50/1/37 49/2/37 52/3/37
f 51/4/38 49/2/38 50/5/38
f 52/3/39 49/2/39 51/4/39
f 54/1/40 53/2/40 56/3/40
f 55/4/41 53/2/41 54/5/41
f 56/3/42 53/2/42 55/4/42
f 58/1/43 57/2/43 60/3/43
f 59/4/44 57/2/44 58/5/44
f 60/3/45 57/2/45 59/4/45
f 62/1/46 61/2/46 64/3/46
f 63/4/47 61/2/47 62/5/47
f 64/3/48 61/2/48 63/4/48
f 66/1/49 65/2/49 68/3/49
f 67/4/50 65/2/50 66/5/50
f 68/3/51 65/2/51 67/4/51
f 70/1/52 69/2/52 72/3/52
f 71/4/53 69/2/53 70/5/53
f 72/3/54 69/2/54 71/4/54
f 74/1/55 73/2/55 76/3/55
f 75/4/56 73/2/56 74/5/56
f 76/3/57 73/2/57 75/4/57
s 1
f 77/6/58 85/7/59 84/8/60
f 84/8/60 85/7/59 83/9/61
f 83/9/61 85/7/59 82/10/62
f 85/7/59 79/11/63 80/12/64
f 82/10/62 85/7/59 81/13/65
f 85/7/59 78/14/66 79/11/63
f 85/7/59 77/6/58 78/14/66
f 81/13/65 85/7/59 80/12/64
f 107/15/67 108/16/68 86/17/69
f 98/18/70 99/19/71 86/17/69
f 92/20/72 93/21/73 86/17/69
f 108/16/68 87/22/74 86/17/69
f 104/23/75 107/15/67 86/17/69
f 99/19/71 104/23/75 86/17/69
f 93/21/73 98/24/70 86/17/69
f 87/22/74 92/20/72 86/17/69
f 82/25/76 90/26/77 89/27/76
f 90/26/77 88/28/76 89/27/76
f 91/29/77 87/22/74 88/28/76
f 79/30/78 95/31/79 80/32/79
f 96/33/78 94/34/79 95/31/79
f 97/35/78 93/21/73 94/34/79
f 77/36/80 101/37/81 78/38/81
f 102/39/80 100/40/81 101/37/81
f 103/41/80 99/19/71 100/40/81
f 77/36/80 105/42/82 102/39/80
f 105/42/82 103/41/80 102/39/80
f 106/43/82 104/23/75 103/41/80
f 83/44/83 89/27/76 110/45/83
f 110/45/83 88/28/76 109/46/83
f 88/28/76 108/16/68 109/46/83
f 80/32/79 90/26/77 81/47/77
f 95/31/79 91/29/77 90/26/77
f 94/34/79 92/20/72 91/29/77
f 79/48/78 101/37/81 96/49/78
f 101/37/81 97/50/78 96/49/78
f 100/40/81 98/18/70 97/50/78
f 84/51/82 110/45/83 105/42/82
f 105/42/82 109/46/83 106/43/82
f 109/46/83 107/15/67 106/43/82
s 0
f 112/1/1 111/2/1 114/3/1
f 113/4/2 111/2/2 112/5/2
f 114/3/3 111/2/3 113/4/3
s 1
f 82/25/76 81/47/77 90/26/77
f 90/26/77 91/29/77 88/28/76
f 91/29/77 92/20/72 87/22/74
f 79/30/78 96/33/78 95/31/79
f 96/33/78 97/35/78 94/34/79
f 97/35/78 98/24/70 93/21/73
f 77/36/80 102/39/80 101/37/81
f 102/39/80 103/41/80 100/40/81
f 103/41/80 104/23/75 99/19/71
f 77/36/80 84/51/82 105/42/82
f 105/42/82 106/43/82 103/41/80
f 106/43/82 107/15/67 104/23/75
f 83/44/83 82/25/76 89/27/76
f 110/45/83 89/27/76 88/28/76
f 88/28/76 87/22/74 108/16/68
f 80/32/79 95/31/79 90/26/77
f 95/31/79 94/34/79 91/29/77
f 94/34/79 93/21/73 92/20/72
f 79/48/78 78/38/81 101/37/81
f 101/37/81 100/40/81 97/50/78
f 100/40/81 99/19/71 98/18/70
f 84/51/82 83/44/83 110/45/83
f 105/42/82 110/45/83 109/46/83
f 109/46/83 108/16/68 107/15/67
