# Blender 5.1.2
# www.blender.org
mtllib drill.mtl
o Cube
v 0.639980 0.033606 -0.437403
v 0.452534 -0.418929 -0.437403
v 0.000000 -0.606374 -0.437403
v -0.452534 -0.418929 -0.437403
v -0.639980 0.033605 -0.437403
v -0.452534 0.486140 -0.437403
v -0.000000 0.673585 -0.437403
v 0.452534 0.486140 -0.437403
v -0.000000 0.033605 0.842557
v 0.000000 0.033605 -0.675953
vn 0.9487 -0.0000 -0.3163
vn 0.6708 -0.6708 -0.3163
vn -0.0000 -0.9487 -0.3163
vn -0.6708 -0.6708 -0.3163
vn -0.9487 -0.0000 -0.3163
vn -0.6708 0.6708 -0.3163
vn -0.0000 0.9487 -0.3163
vn 0.6708 0.6708 -0.3163
vn -0.0000 -0.0000 1.0000
vn -0.0000 -0.0000 -1.0000
vt 0.250000 0.490000
vt 0.250000 0.250000
vt 0.419706 0.419706
vt 0.490000 0.250000
vt 0.419706 0.080294
vt 0.250000 0.010000
vt 0.080294 0.080294
vt 0.010000 0.250000
vt 0.750000 0.490000
vt 0.750000 0.250000
vt 0.580294 0.419706
vt 0.080294 0.419706
vt 0.510000 0.250000
vt 0.580294 0.080294
vt 0.990000 0.250000
vt 0.919706 0.080294
vt 0.750000 0.010000
vt 0.919706 0.419706
s 1
usemtl Material
f 1/1/1 9/2/9 2/3/2
f 2/3/2 9/2/9 3/4/3
f 3/4/3 9/2/9 4/5/4
f 4/5/4 9/2/9 5/6/5
f 5/6/5 9/2/9 6/7/6
f 6/7/6 9/2/9 7/8/7
f 1/9/1 10/10/10 8/11/8
f 7/8/7 9/2/9 8/12/8
f 8/12/8 9/2/9 1/1/1
f 8/11/8 10/10/10 7/13/7
f 7/13/7 10/10/10 6/14/6
f 10/10/10 3/15/3 4/16/4
f 6/14/6 10/10/10 5/17/5
f 10/10/10 2/18/2 3/15/3
f 10/10/10 1/9/1 2/18/2
f 5/17/5 10/10/10 4/16/4
