# Blender 5.1.2
# www.blender.org
mtllib drill_base.mtl
o Cube
v -0.431496 -0.431496 -0.218492
v -0.431496 0.431496 -0.218492
v -0.500000 -0.500000 -0.500000
v -0.500000 0.500000 -0.500000
v 0.431496 -0.431496 -0.218492
v 0.431496 0.431496 -0.218492
v 0.500000 -0.500000 -0.500000
v 0.500000 0.500000 -0.500000
vn -0.9716 -0.0000 0.2364
vn -0.0000 -0.0000 -1.0000
vn 0.9716 -0.0000 0.2364
vn -0.0000 -0.0000 1.0000
vn -0.0000 -0.9716 0.2364
vn -0.0000 0.9716 0.2364
vt 0.646509 0.499900
vt 0.527936 0.118673
vt 0.646509 0.146709
vt 0.527936 0.527936
vt 0.118673 0.118673
vt 0.118673 0.527936
vt 0.000100 0.146709
vt 0.353291 0.999900
vt 0.000100 0.646709
vt 0.353291 0.646709
vt 0.499900 0.000100
vt 0.146709 0.646509
vt 0.000100 0.499900
vt 0.000100 0.999900
vt 0.146709 0.000100
vt 0.499900 0.646509
s 0
usemtl Material.001
f 2/1/1 3/2/1 1/3/1
f 4/4/2 7/5/2 3/2/2
f 8/6/3 5/7/3 7/5/3
f 6/8/4 1/9/4 5/10/4
f 7/5/5 1/11/5 3/2/5
f 4/4/6 6/12/6 8/6/6
f 2/1/1 4/4/1 3/2/1
f 4/4/2 8/6/2 7/5/2
f 8/6/3 6/13/3 5/7/3
f 6/8/4 2/14/4 1/9/4
f 7/5/5 5/15/5 1/11/5
f 4/4/6 2/16/6 6/12/6
