# Blender 4.0.2
# www.blender.org
o Cube
v 0.011177 -1.044942 0.780243
v 0.191165 0.996071 0.803664
v 0.147723 -0.995624 -0.801355
v 0.252995 0.986024 -0.823669
v -0.205308 -0.999285 0.775151
v -0.028630 0.976429 0.803404
v -0.067354 -0.943636 -0.805217
v 0.033201 0.966381 -0.823929
v 0.220500 -0.038795 0.807360
v 0.150733 -0.036045 -0.788963
v 0.370228 -0.051667 -0.785911
v 0.000637 -0.029523 0.805005
v 0.022106 1.018716 0.003519
v 0.115052 -1.000954 0.013387
v -0.100694 -0.951920 0.008337
v 0.241900 1.038358 0.003779
v 0.334021 -0.042683 -0.025191
v 0.114330 -0.029788 -0.025648
v 0.022106 1.018716 0.003519
v 0.033201 0.966381 -0.823929
v 0.033201 0.966381 -0.823929
v 0.191165 0.996071 0.803664
v 0.191165 0.996071 0.803664
v -0.028630 0.976429 0.803404
v -0.028630 0.976429 0.803404
v 0.220500 -0.038795 0.807360
v 0.220500 -0.038795 0.807360
v 0.150733 -0.036045 -0.788963
v 0.150733 -0.036045 -0.788963
v -0.067354 -0.943636 -0.805217
v -0.067354 -0.943636 -0.805217
v 0.370228 -0.051667 -0.785911
v 0.370228 -0.051667 -0.785911
v 0.252995 0.986024 -0.823669
v 0.252995 0.986024 -0.823669
v 0.000637 -0.029523 0.805005
v 0.000637 -0.029523 0.805005
v 0.147723 -0.995624 -0.801355
v 0.147723 -0.995624 -0.801355
v 0.115052 -1.000954 0.013387
v -0.100694 -0.951920 0.008337
v -0.205308 -0.999285 0.775151
v -0.205308 -0.999285 0.775151
v 0.011177 -1.044942 0.780243
v 0.011177 -1.044942 0.780243
v 0.241900 1.038358 0.003779
v 0.334021 -0.042683 -0.025191
v 0.114330 -0.029788 -0.025648
vn -0.2214 -0.9739 -0.0507
vn -0.2324 -0.9725 -0.0163
vn -0.2347 -0.9720 -0.0158
vn 0.0201 0.0128 -0.9997
vn 0.0131 -0.0112 -0.9999
vn 0.0131 -0.0109 -0.9999
vn -0.9719 0.2200 -0.0839
vn -0.9682 0.2158 -0.1267
vn -0.9703 0.2258 -0.0865
vn -0.0890 0.9960 -0.0099
vn -0.0888 0.9940 -0.0641
vn -0.0890 0.9960 -0.0073
vn 0.9713 -0.2213 0.0870
vn 0.9735 -0.2248 0.0424
vn 0.9720 -0.2299 0.0490
vn -0.0117 -0.0111 0.9999
vn -0.0264 -0.0246 0.9993
vn -0.0111 -0.0102 0.9999
vn -0.0026 0.0018 1.0000
vn -0.0013 0.0016 1.0000
vn 0.9947 0.0772 0.0672
vn 0.9951 0.0961 0.0228
vn 0.9957 0.0838 0.0384
vn -0.9946 -0.0797 -0.0671
vn -0.9934 -0.0615 -0.0967
vn -0.9955 -0.0865 -0.0384
vn 0.0052 -0.0345 -0.9994
vn 0.0043 -0.0344 -0.9994
vn -0.9948 -0.0996 -0.0232
vn 0.9936 0.0603 0.0957
vn 0.9691 -0.2113 0.1273
vn 0.9729 -0.2154 0.0841
vn -0.0890 0.9949 0.0470
vn -0.9724 0.2293 -0.0422
vn -0.9710 0.2342 -0.0482
vn -0.2062 -0.9746 -0.0876
vn -0.2188 -0.9743 -0.0536
vn 0.0211 0.0128 -0.9997
vn -0.9704 0.2098 -0.1194
vn -0.0287 -0.0247 0.9993
vn 0.9924 0.1138 0.0459
vn -0.9903 -0.0290 -0.1355
vn -0.9919 -0.1179 -0.0463
vn 0.9904 0.0286 0.1349
vn 0.9713 -0.2053 0.1198
vn -0.2036 -0.9751 -0.0880
vt 0.177219 0.540604
vt 0.358167 0.489155
vt 0.359699 0.538511
vt 0.499170 0.439552
vt 0.488735 0.227367
vt 0.537444 0.228272
vt 0.174860 0.490619
vt 0.009471 0.271610
vt 0.192589 0.277881
vt 0.194377 0.000099
vt 0.371834 0.061373
vt 0.191183 0.048206
vt 0.195180 0.759574
vt 0.363801 0.753850
vt 0.424487 0.229995
vt 0.402164 0.453747
vt 0.375824 0.227696
vt 0.402739 0.000099
vt 0.450813 0.008772
vt 0.375626 0.985399
vt 0.192051 0.999901
vt 0.016003 0.051149
vt 0.499371 0.000099
vt 0.451012 0.007010
vt 0.013969 0.993656
vt 0.009258 0.764012
vt 0.018478 0.002552
vt 0.360927 0.282848
vt 0.003930 0.536464
vt 0.451012 0.430560
vt 0.000099 0.488230
vt 0.375626 0.013161
vt 0.450813 0.447975
s 1
f 40/1/1 31/2/2 38/3/3
f 39/4/4 28/5/5 33/6/6
f 41/7/7 37/8/8 48/9/9
f 16/10/10 20/11/11 19/12/12
f 47/13/13 3/3/14 11/14/15
f 36/15/16 44/16/17 26/17/18
f 36/15/16 22/18/19 24/19/20
f 17/13/21 34/20/22 46/21/23
f 18/9/24 25/22/25 13/12/26
f 4/23/27 28/5/5 21/24/28
f 8/11/29 18/9/24 13/12/26
f 23/25/30 17/13/21 46/21/23
f 9/26/31 14/1/32 47/13/13
f 2/27/33 19/12/12 6/22/33
f 7/2/34 48/9/9 10/28/35
f 1/29/36 15/7/37 40/1/1
f 40/1/1 15/7/37 31/2/2
f 39/4/4 30/30/38 28/5/5
f 41/7/7 42/31/39 37/8/8
f 16/10/10 35/32/11 20/11/11
f 47/13/13 14/1/32 3/3/14
f 36/15/16 43/33/40 44/16/17
f 36/15/16 26/17/18 22/18/19
f 17/13/21 32/14/41 34/20/22
f 18/9/24 12/8/42 25/22/25
f 4/23/27 33/6/6 28/5/5
f 8/11/29 29/28/43 18/9/24
f 23/25/30 27/26/44 17/13/21
f 9/26/31 45/29/45 14/1/32
f 2/27/33 16/10/10 19/12/12
f 7/2/34 41/7/7 48/9/9
f 1/29/36 5/31/46 15/7/37
