# Blender 5.1.2
# www.blender.org
o Bent
v -0.351711 -0.450000 0.050000
v -0.277986 -0.450000 -0.127986
v -0.100000 -0.450000 -0.201710
v 0.077986 -0.450000 -0.127986
v 0.151711 -0.450000 0.050000
v 0.077986 -0.450000 0.227986
v -0.100000 -0.450000 0.301711
v -0.277986 -0.450000 0.227986
v -0.374548 -0.390207 0.050000
v -0.294088 -0.390207 -0.144249
v 0.094410 -0.390207 -0.144249
v 0.094410 -0.390207 0.244249
v -0.294088 -0.390207 0.244249
v -0.400000 -0.390000 0.050000
v -0.312132 -0.390000 -0.162132
v -0.100000 -0.390000 -0.250000
v 0.112132 -0.390000 -0.162132
v 0.200000 -0.390000 0.050000
v 0.112132 -0.390000 0.262132
v -0.100000 -0.390000 0.350000
v -0.312132 -0.390000 0.262132
v 0.400000 -0.201711 0.050000
v 0.400000 -0.127986 -0.127986
v 0.400000 0.050000 -0.201710
v 0.400000 0.227986 -0.127986
v 0.400000 0.301711 0.050000
v 0.400000 0.227986 0.227986
v 0.400000 0.050000 0.301711
v 0.400000 -0.127986 0.227986
v 0.340227 -0.144043 -0.144249
v 0.340227 0.050206 -0.224709
v 0.340227 0.244454 -0.144249
v 0.340227 0.244454 0.244249
v 0.340227 0.050206 0.324709
v 0.340227 -0.144043 0.244249
v 0.340000 -0.250000 0.050000
v 0.340000 -0.162132 -0.162132
v 0.340000 0.050000 -0.250000
v 0.340000 0.262132 -0.162132
v 0.340000 0.350000 0.050000
v 0.340000 0.262132 0.262132
v 0.340000 0.050000 0.350000
v 0.340000 -0.162132 0.262132
v -0.099839 -0.385653 -0.221168
v 0.171329 -0.385913 0.050000
v -0.099839 -0.385653 0.321168
v 0.335753 0.319112 0.050000
v 0.335233 -0.223223 0.050000
v 0.179724 0.217993 -0.141744
v 0.026439 0.154672 -0.141744
v -0.105235 0.053836 -0.141744
v -0.206324 -0.077644 -0.141744
v -0.269939 -0.230808 -0.141744
v 0.229174 0.032735 -0.221168
v 0.122152 -0.011475 -0.221168
v 0.030219 -0.081878 -0.221168
v -0.040360 -0.173676 -0.221168
v -0.084776 -0.280613 -0.221168
v 0.278623 -0.152524 -0.141744
v 0.217865 -0.177623 -0.141744
v 0.165672 -0.217592 -0.141744
v 0.125603 -0.269707 -0.141744
v 0.100388 -0.330418 -0.141744
v 0.299106 -0.229260 0.050000
v 0.257510 -0.246443 0.050000
v 0.221779 -0.273806 0.050000
v 0.194347 -0.309485 0.050000
v 0.177085 -0.351048 0.050000
v 0.278623 -0.152524 0.241744
v 0.217865 -0.177623 0.241744
v 0.165672 -0.217592 0.241745
v 0.125603 -0.269707 0.241745
v 0.100388 -0.330418 0.241745
v 0.229174 0.032735 0.321168
v 0.122152 -0.011475 0.321168
v 0.030219 -0.081878 0.321168
v -0.040360 -0.173676 0.321168
v -0.084776 -0.280613 0.321168
v 0.179724 0.217993 0.241744
v 0.026439 0.154672 0.241745
v -0.105235 0.053836 0.241745
v -0.206324 -0.077644 0.241745
v -0.269939 -0.230808 0.241745
v -0.346636 -0.210178 0.050000
v -0.275068 -0.037867 0.050000
v -0.161342 0.110050 0.050000
v -0.013207 0.223493 0.050000
v 0.159242 0.294730 0.050000
v -0.400000 -0.450000 0.050000
v -0.312132 -0.450000 -0.162132
v -0.100000 -0.450000 -0.250000
v 0.112132 -0.450000 -0.162132
v 0.200000 -0.450000 0.050000
v 0.112132 -0.450000 0.262132
v -0.100000 -0.450000 0.350000
v -0.312132 -0.450000 0.262132
v 0.400000 -0.250000 0.050000
v 0.400000 -0.162132 -0.162132
v 0.400000 0.050000 -0.250000
v 0.400000 0.262132 -0.162132
v 0.400000 0.350000 0.050000
v 0.400000 0.262132 0.262132
v 0.400000 0.050000 0.350000
v 0.400000 -0.162132 0.262132
v 0.266455 -0.189576 0.050000
v 0.266455 -0.119406 -0.119406
v 0.266455 0.050000 -0.189576
v 0.266455 0.219406 -0.119406
v 0.266455 0.289576 0.050000
v 0.266455 0.219406 0.219406
v 0.266455 0.050000 0.289576
v 0.266455 -0.119406 0.219406
v -0.318492 -0.315387 0.050000
v -0.254497 -0.315387 -0.104497
v -0.100000 -0.315387 -0.168492
v 0.054497 -0.315387 -0.104497
v 0.118492 -0.315387 0.050000
v 0.054497 -0.315387 0.204497
v -0.100000 -0.315387 0.268492
v -0.254497 -0.315387 0.204497
v -0.400000 -0.450000 0.050000
v -0.312132 -0.450000 -0.162132
v -0.100000 -0.450000 -0.250000
v 0.112132 -0.450000 -0.162132
v 0.200000 -0.450000 0.050000
v 0.112132 -0.450000 0.262132
v -0.100000 -0.450000 0.350000
v -0.312132 -0.450000 0.262132
v -0.400000 -0.390000 0.050000
v -0.312132 -0.390000 -0.162132
v -0.100000 -0.390000 -0.250000
v 0.112132 -0.390000 -0.162132
v 0.200000 -0.390000 0.050000
v 0.112132 -0.390000 0.262132
v -0.100000 -0.390000 0.350000
v -0.312132 -0.390000 0.262132
v -0.374548 -0.390207 0.050000
v -0.294088 -0.390207 -0.144249
v -0.294088 -0.390207 0.244249
v 0.400000 -0.250000 0.050000
v 0.400000 -0.162132 -0.162132
v 0.400000 0.050000 -0.250000
v 0.400000 0.262132 -0.162132
v 0.400000 0.350000 0.050000
v 0.400000 0.262132 0.262132
v 0.400000 0.050000 0.350000
v 0.400000 -0.162132 0.262132
v 0.340000 -0.250000 0.050000
v 0.340000 -0.162132 -0.162132
v 0.340000 0.050000 -0.250000
v 0.340000 0.262132 -0.162132
v 0.340000 0.350000 0.050000
v 0.340000 0.262132 0.262132
v 0.340000 0.050000 0.350000
v 0.340000 -0.162132 0.262132
v 0.340227 -0.144043 -0.144249
v 0.340227 0.050206 -0.224709
v 0.340227 0.244454 -0.144249
v 0.340227 0.244454 0.244249
v 0.340227 0.050206 0.324709
v 0.340227 -0.144043 0.244249
v 0.335233 -0.223223 0.050000
v 0.335753 0.319112 0.050000
v -0.099839 -0.385653 -0.221168
v 0.094410 -0.390207 -0.144249
v 0.171329 -0.385913 0.050000
v 0.094410 -0.390207 0.244249
v -0.099839 -0.385653 0.321168
v -0.351711 -0.450000 0.050000
v -0.277986 -0.450000 -0.127986
v -0.100000 -0.450000 -0.201710
v 0.077986 -0.450000 -0.127986
v 0.151711 -0.450000 0.050000
v 0.077986 -0.450000 0.227986
v -0.100000 -0.450000 0.301711
v -0.277986 -0.450000 0.227986
v 0.400000 -0.201711 0.050000
v 0.400000 -0.127986 -0.127986
v 0.400000 0.050000 -0.201710
v 0.400000 0.227986 -0.127986
v 0.400000 0.301711 0.050000
v 0.400000 0.227986 0.227986
v 0.400000 0.050000 0.301711
v 0.400000 -0.127986 0.227986
v 0.266455 -0.189576 0.050000
v 0.266455 -0.119406 -0.119406
v 0.266455 0.050000 -0.189576
v 0.266455 0.219406 -0.119406
v 0.266455 0.289576 0.050000
v 0.266455 0.219406 0.219406
v 0.266455 0.050000 0.289576
v 0.266455 -0.119406 0.219406
v -0.318492 -0.315387 0.050000
v -0.254497 -0.315387 -0.104497
v -0.100000 -0.315387 -0.168492
v 0.054497 -0.315387 -0.104497
v 0.118492 -0.315387 0.050000
v 0.054497 -0.315387 0.204497
v -0.100000 -0.315387 0.268492
v -0.254497 -0.315387 0.204497
vn 0.9709 -0.2396 -0.0000
vn 0.6865 -0.2396 0.6865
vn -0.0000 -0.2396 0.9709
vn -0.6865 -0.2396 0.6865
vn -0.9709 -0.2396 -0.0000
vn -0.6865 -0.2396 -0.6865
vn -0.0000 -0.2396 -0.9709
vn 0.6865 -0.2396 -0.6865
vn -0.9882 0.1532 -0.0000
vn -0.7149 0.1184 -0.6892
vn 0.6887 -0.0385 -0.7240
vn 0.6887 -0.0385 0.7240
vn -0.7149 0.1184 0.6892
vn 0.0081 1.0000 -0.0000
vn 0.0058 1.0000 0.0058
vn -0.0002 0.9908 -0.1351
vn -0.0058 1.0000 0.0058
vn 0.1279 0.9918 -0.0000
vn -0.0058 1.0000 -0.0058
vn -0.0002 0.9908 0.1351
vn 0.0058 1.0000 -0.0058
vn 0.0905 0.9959 -0.0000
vn 0.0905 0.7042 0.7042
vn 0.0905 -0.0000 0.9959
vn 0.0905 -0.7042 0.7042
vn 0.0905 -0.9959 -0.0000
vn 0.0905 -0.7042 -0.7042
vn 0.0905 -0.0000 -0.9959
vn 1.0000 -0.0000 -0.0000
vn 0.0677 -0.6858 -0.7246
vn -0.0343 0.0346 -0.9988
vn -0.1299 0.7238 -0.6777
vn -0.1299 0.7238 0.6777
vn -0.0343 0.0346 0.9988
vn 0.0677 -0.6858 0.7246
vn -0.9873 -0.1589 -0.0000
vn -1.0000 0.0063 0.0063
vn -1.0000 -0.0000 0.0090
vn -1.0000 -0.0064 0.0064
vn -0.9924 0.1234 -0.0000
vn -1.0000 -0.0064 -0.0064
vn -1.0000 -0.0000 -0.0090
vn -1.0000 0.0063 -0.0063
vn 0.0004 0.9888 -0.1491
vn 0.1411 0.9900 -0.0000
vn 0.0004 0.9888 0.1491
vn -0.1504 0.9886 -0.0000
vn 0.1569 -0.9876 -0.0000
vn -0.2005 0.6964 -0.6891
vn -0.3606 0.6259 -0.6915
vn -0.5103 0.5113 -0.6915
vn -0.6252 0.3618 -0.6915
vn -0.6937 0.1976 -0.6926
vn -0.0244 0.0243 -0.9994
vn -0.0159 0.0276 -0.9995
vn -0.0225 0.0225 -0.9995
vn -0.0276 0.0160 -0.9995
vn -0.0294 0.0083 -0.9995
vn 0.1680 -0.6741 -0.7193
vn 0.3447 -0.5983 -0.7234
vn 0.4878 -0.4887 -0.7234
vn 0.5976 -0.3458 -0.7234
vn 0.6704 -0.1598 -0.7246
vn 0.2756 -0.9613 -0.0000
vn 0.4992 -0.8665 -0.0000
vn 0.7064 -0.7078 -0.0000
vn 0.8655 -0.5008 -0.0000
vn 0.9613 -0.2755 -0.0000
vn 0.1680 -0.6741 0.7193
vn 0.3447 -0.5983 0.7234
vn 0.4878 -0.4887 0.7234
vn 0.5976 -0.3458 0.7234
vn 0.6704 -0.1598 0.7246
vn -0.0244 0.0242 0.9994
vn -0.0159 0.0276 0.9995
vn -0.0225 0.0226 0.9995
vn -0.0276 0.0160 0.9995
vn -0.0294 0.0083 0.9995
vn -0.2005 0.6964 0.6891
vn -0.3606 0.6259 0.6915
vn -0.5103 0.5113 0.6915
vn -0.6252 0.3618 0.6915
vn -0.6937 0.1976 0.6926
vn -0.9627 0.2706 -0.0000
vn -0.8655 0.5008 -0.0000
vn -0.7064 0.7078 -0.0000
vn -0.4992 0.8665 -0.0000
vn -0.2613 0.9653 -0.0000
vn -0.0000 -1.0000 -0.0000
vn -1.0000 -0.0000 -0.0000
vn -0.7071 -0.0000 -0.7071
vn -0.0000 -0.0000 -1.0000
vn 0.7071 -0.0000 -0.7071
vn 0.7071 -0.0000 0.7071
vn -0.0000 -0.0000 1.0000
vn -0.7071 -0.0000 0.7071
vn 0.0031 1.0000 0.0009
vn 0.0031 1.0000 -0.0009
vn -0.0000 -0.7071 -0.7071
vn -0.0000 0.7071 -0.7071
vn -0.0000 1.0000 -0.0000
vn -0.0000 0.7071 0.7071
vn -0.0000 -0.7071 0.7071
vn -1.0000 0.0010 0.0034
vn -1.0000 -0.0016 0.0037
vn -1.0000 -0.0016 -0.0037
vn -1.0000 0.0010 -0.0034
vn -0.9845 -0.1753 -0.0000
vn -0.9907 0.1362 -0.0000
vn -0.0324 0.0140 -0.9994
vn 0.0014 1.0000 -0.0016
vn 0.9888 -0.1491 -0.0000
vn 0.0014 1.0000 0.0016
vn -0.0324 0.0140 0.9994
vn 0.0905 0.7042 -0.7042
vt 0.435061 0.214592
vt 0.503973 0.128131
vt 0.433580 0.124793
vt 0.654040 0.067171
vt 0.577391 0.095821
vt 0.651382 0.111382
vt 0.732469 0.096040
vt 0.725813 0.148771
vt 0.163760 0.058005
vt 0.066831 0.155484
vt 0.167125 0.103768
vt 0.265363 0.039328
vt 0.264887 0.084581
vt 0.356410 0.039890
vt 0.354962 0.084010
vt 0.432748 0.043172
vt 0.433577 0.086569
vt 0.506216 0.046528
vt 0.505481 0.089885
vt 0.577883 0.052390
vt 0.432524 0.012908
vt 0.359369 0.011068
vt 0.268316 0.010086
vt 0.167013 0.026171
vt 0.061987 0.119913
vt 0.052838 0.055581
vt 0.653851 0.035114
vt 0.729524 0.050151
vt 0.577463 0.022096
vt 0.506643 0.016713
vt 0.183997 0.234685
vt 0.266117 0.148165
vt 0.175597 0.162797
vt 0.348449 0.072148
vt 0.265016 0.109512
vt 0.348966 0.103141
vt 0.426601 0.069341
vt 0.426516 0.101671
vt 0.501149 0.069175
vt 0.500490 0.103966
vt 0.575524 0.072999
vt 0.573716 0.111401
vt 0.646441 0.124144
vt 0.726340 0.148976
vt 0.649835 0.083403
vt 0.173105 0.122417
vt 0.061514 0.120344
vt 0.065301 0.155354
vt 0.263452 0.079363
vt 0.651308 0.035298
vt 0.733271 0.096706
vt 0.730580 0.049780
vt 0.577092 0.023282
vt 0.502540 0.017038
vt 0.427777 0.012208
vt 0.349361 0.013592
vt 0.263736 0.016515
vt 0.170693 0.026568
vt 0.050559 0.055886
vt 0.417158 0.535602
vt 0.469526 0.453125
vt 0.417158 0.452175
vt 0.417158 0.609753
vt 0.469526 0.536237
vt 0.469526 0.683869
vt 0.417158 0.683034
vt 0.469526 0.765256
vt 0.417158 0.764803
vt 0.417158 0.855052
vt 0.469526 0.919369
vt 0.417158 0.919369
vt 0.417158 0.365750
vt 0.462945 0.330830
vt 0.414690 0.327540
vt 0.136882 0.453125
vt 0.078589 0.367254
vt 0.078589 0.453125
vt 0.222861 0.453125
vt 0.136882 0.367254
vt 0.285343 0.367254
vt 0.222861 0.367254
vt 0.345564 0.454770
vt 0.285343 0.453125
vt 0.348176 0.367306
vt 0.076461 0.336185
vt 0.140995 0.326717
vt 0.285343 0.299572
vt 0.222861 0.302862
vt 0.350500 0.317669
vt 0.352967 0.320137
vt 0.078589 0.919369
vt 0.136882 0.854291
vt 0.078589 0.854291
vt 0.222861 0.919369
vt 0.136882 0.919369
vt 0.285343 0.919369
vt 0.222861 0.854291
vt 0.345564 0.921014
vt 0.285343 0.854291
vt 0.345564 0.851791
vt 0.136882 0.765256
vt 0.078589 0.765256
vt 0.222861 0.765256
vt 0.345564 0.766901
vt 0.285343 0.765256
vt 0.136882 0.683869
vt 0.078589 0.683869
vt 0.222861 0.683869
vt 0.285343 0.683869
vt 0.345564 0.685514
vt 0.078589 0.610217
vt 0.136882 0.610217
vt 0.285343 0.610217
vt 0.222861 0.610217
vt 0.345564 0.611863
vt 0.136882 0.536237
vt 0.078589 0.536237
vt 0.222861 0.536237
vt 0.285343 0.536237
vt 0.345564 0.537882
vt 0.352639 0.122227
vt 0.262538 0.122453
vt 0.168070 0.143423
vt 0.078803 0.195440
vt 0.716097 0.193366
vt 0.649483 0.149050
vt 0.576066 0.133588
vt 0.715970 0.191426
vt 0.644187 0.168848
vt 0.572123 0.156868
vt 0.499793 0.145088
vt 0.427033 0.141739
vt 0.349394 0.143737
vt 0.079755 0.194970
vt 0.644888 0.424794
vt 0.747599 0.467339
vt 0.790144 0.364627
vt 0.431771 0.215202
vt 0.566456 0.221598
vt 0.635911 0.230000
vt 0.095193 0.264579
vt 0.351985 0.212672
vt 0.498047 0.214681
vt 0.786934 0.361059
vt 0.684240 0.318522
vt 0.641702 0.421216
vt 0.567601 0.219235
vt 0.100149 0.263531
vt 0.263801 0.213099
vt 0.498151 0.216168
vt 0.634461 0.229722
vt 0.181189 0.230685
vt 0.351711 0.216046
vt 0.270348 0.214437
vt 0.171480 0.094748
vt 0.469526 0.610217
vt 0.469526 0.854291
vt 0.469526 0.367254
vt 0.747600 0.322082
vt 0.687432 0.322082
vt 0.644888 0.364627
vt 0.687432 0.467339
vt 0.790144 0.424794
vt 0.703278 0.242967
vt 0.684240 0.463754
vt 0.744397 0.463754
vt 0.786934 0.421216
vt 0.744397 0.318522
vt 0.641702 0.361059
vt 0.703104 0.242850
s 1
f 113/1/1 8/2/8 1/3/1
f 134/4/94 127/5/95 126/6/94
f 133/7/29 126/6/94 125/8/29
f 132/9/93 125/10/29 124/11/93
f 131/12/92 124/11/93 123/13/92
f 130/14/91 123/13/92 122/15/91
f 129/16/90 122/15/91 121/17/90
f 136/18/96 121/17/90 128/19/96
f 135/20/95 128/19/96 127/5/95
f 15/14/15 137/21/14 138/22/97
f 16/12/16 138/22/97 44/23/44
f 165/24/111 16/12/16 44/23/44
f 18/25/18 165/24/111 45/26/45
f 167/27/113 18/7/18 45/28/45
f 20/20/20 167/27/113 46/29/46
f 139/30/98 20/20/20 46/29/46
f 137/21/14 21/18/21 139/30/98
f 192/31/115 28/32/28 184/33/115
f 153/34/102 146/35/95 145/36/102
f 152/37/101 145/36/102 144/38/101
f 151/39/100 144/38/101 143/40/100
f 150/41/92 143/40/100 142/42/92
f 141/43/99 150/41/92 142/42/92
f 140/44/89 149/45/99 141/43/99
f 147/46/103 148/47/89 140/48/89
f 154/49/95 147/46/103 146/35/95
f 156/50/104 36/51/36 162/52/108
f 38/41/38 156/50/104 157/53/38
f 39/39/39 157/53/38 158/54/105
f 40/37/40 158/54/105 163/55/109
f 159/56/106 40/37/40 163/55/109
f 160/57/42 41/34/41 159/56/106
f 161/58/107 42/49/42 160/57/42
f 36/47/36 161/58/107 162/59/108
f 83/60/83 168/61/114 78/62/78
f 84/63/84 13/64/13 83/60/83
f 10/65/10 84/63/84 53/66/53
f 164/67/110 53/66/53 58/68/58
f 63/69/63 164/67/110 58/68/58
f 166/70/112 63/69/63 68/71/68
f 73/72/73 166/73/112 68/74/68
f 168/61/114 73/72/73 78/62/78
f 74/75/74 35/76/35 34/77/34
f 75/78/75 69/79/69 74/75/74
f 75/78/75 71/80/71 70/81/70
f 77/82/77 71/80/71 76/83/76
f 77/82/77 73/72/73 72/84/72
f 69/79/69 48/85/48 35/76/35
f 70/81/70 64/86/64 69/79/69
f 70/81/70 66/87/66 65/88/65
f 71/80/71 67/89/67 66/87/66
f 73/72/73 67/90/67 72/84/72
f 48/91/48 59/92/59 30/93/30
f 65/94/65 59/92/59 64/95/64
f 66/96/66 60/97/60 65/94/65
f 67/98/67 61/99/61 66/96/66
f 67/98/67 63/69/63 62/100/62
f 30/93/30 54/101/54 31/102/31
f 60/97/60 54/101/54 59/92/59
f 61/99/61 55/103/55 60/97/60
f 61/99/61 57/104/57 56/105/56
f 63/69/63 57/104/57 62/100/62
f 31/102/31 49/106/49 32/107/32
f 55/103/55 49/106/49 54/101/54
f 56/105/56 50/108/50 55/103/55
f 57/104/57 51/109/51 56/105/56
f 58/68/58 52/110/52 57/104/57
f 49/106/49 47/111/47 32/107/32
f 50/108/50 88/112/88 49/106/49
f 50/108/50 86/113/86 87/114/87
f 51/109/51 85/115/85 86/113/86
f 53/66/53 85/115/85 52/110/52
f 47/111/47 79/116/79 33/117/33
f 88/112/88 80/118/80 79/116/79
f 86/113/86 80/118/80 87/114/87
f 85/115/85 81/119/81 86/113/86
f 84/63/84 82/120/82 85/115/85
f 79/116/79 34/77/34 33/117/33
f 79/116/79 75/78/75 74/75/74
f 80/118/80 76/83/76 75/78/75
f 82/120/82 76/83/76 81/119/81
f 83/60/83 77/82/77 82/120/82
f 89/17/89 170/121/89 169/3/89
f 90/15/89 171/122/89 170/121/89
f 171/122/89 92/11/89 172/123/89
f 172/123/89 93/10/89 173/124/89
f 173/125/89 94/6/89 174/126/89
f 174/126/89 95/5/89 175/127/89
f 95/5/89 176/2/89 175/127/89
f 96/19/89 169/3/89 176/2/89
f 177/128/29 98/43/29 178/129/29
f 178/129/29 99/42/29 179/130/29
f 99/42/29 180/131/29 179/130/29
f 100/40/29 181/132/29 180/131/29
f 101/38/29 182/133/29 181/132/29
f 182/133/29 103/35/29 183/32/29
f 103/35/29 29/33/29 183/32/29
f 104/46/29 177/134/29 29/33/29
f 188/135/29 190/136/29 112/137/29
f 27/133/27 109/138/26 26/132/26
f 25/131/25 107/139/24 24/130/24
f 106/140/23 22/128/22 23/129/23
f 105/141/22 184/33/115 22/134/22
f 28/32/28 110/142/27 27/133/27
f 26/132/26 108/143/25 25/131/25
f 107/139/24 23/129/23 24/130/24
f 196/144/89 198/145/89 200/146/89
f 119/147/7 6/126/6 7/127/7
f 117/148/5 4/123/4 5/124/5
f 115/149/3 2/121/2 3/122/3
f 120/150/8 7/127/7 8/2/8
f 118/151/6 5/125/5 6/126/6
f 116/152/4 3/122/3 4/123/4
f 114/153/2 1/3/1 2/121/2
f 113/1/1 120/150/8 8/2/8
f 134/4/94 135/20/95 127/5/95
f 133/7/29 134/4/94 126/6/94
f 132/9/93 133/25/29 125/10/29
f 131/12/92 132/9/93 124/11/93
f 130/14/91 131/12/92 123/13/92
f 129/16/90 130/14/91 122/15/91
f 136/18/96 129/16/90 121/17/90
f 135/20/95 136/18/96 128/19/96
f 15/14/15 14/16/14 137/21/14
f 16/12/16 15/14/15 138/22/97
f 165/24/111 17/9/17 16/12/16
f 18/25/18 17/9/17 165/24/111
f 167/27/113 19/4/19 18/7/18
f 20/20/20 19/4/19 167/27/113
f 139/30/98 21/18/21 20/20/20
f 137/21/14 14/16/14 21/18/21
f 192/31/115 111/154/28 28/32/28
f 153/34/102 154/49/95 146/35/95
f 152/37/101 153/34/102 145/36/102
f 151/39/100 152/37/101 144/38/101
f 150/41/92 151/39/100 143/40/100
f 141/43/99 149/45/99 150/41/92
f 140/44/89 148/51/89 149/45/99
f 147/46/103 155/155/103 148/47/89
f 154/49/95 155/155/103 147/46/103
f 156/50/104 37/45/37 36/51/36
f 38/41/38 37/45/37 156/50/104
f 39/39/39 38/41/38 157/53/38
f 40/37/40 39/39/39 158/54/105
f 159/56/106 41/34/41 40/37/40
f 160/57/42 42/49/42 41/34/41
f 161/58/107 43/155/43 42/49/42
f 36/47/36 43/155/43 161/58/107
f 83/60/83 13/64/13 168/61/114
f 84/63/84 9/156/9 13/64/13
f 10/65/10 9/156/9 84/63/84
f 164/67/110 10/65/10 53/66/53
f 63/69/63 11/157/11 164/67/110
f 166/70/112 11/157/11 63/69/63
f 73/72/73 12/158/12 166/73/112
f 168/61/114 12/158/12 73/72/73
f 74/75/74 69/79/69 35/76/35
f 75/78/75 70/81/70 69/79/69
f 75/78/75 76/83/76 71/80/71
f 77/82/77 72/84/72 71/80/71
f 77/82/77 78/62/78 73/72/73
f 69/79/69 64/86/64 48/85/48
f 70/81/70 65/88/65 64/86/64
f 70/81/70 71/80/71 66/87/66
f 71/80/71 72/84/72 67/89/67
f 73/72/73 68/74/68 67/90/67
f 48/91/48 64/95/64 59/92/59
f 65/94/65 60/97/60 59/92/59
f 66/96/66 61/99/61 60/97/60
f 67/98/67 62/100/62 61/99/61
f 67/98/67 68/71/68 63/69/63
f 30/93/30 59/92/59 54/101/54
f 60/97/60 55/103/55 54/101/54
f 61/99/61 56/105/56 55/103/55
f 61/99/61 62/100/62 57/104/57
f 63/69/63 58/68/58 57/104/57
f 31/102/31 54/101/54 49/106/49
f 55/103/55 50/108/50 49/106/49
f 56/105/56 51/109/51 50/108/50
f 57/104/57 52/110/52 51/109/51
f 58/68/58 53/66/53 52/110/52
f 49/106/49 88/112/88 47/111/47
f 50/108/50 87/114/87 88/112/88
f 50/108/50 51/109/51 86/113/86
f 51/109/51 52/110/52 85/115/85
f 53/66/53 84/63/84 85/115/85
f 47/111/47 88/112/88 79/116/79
f 88/112/88 87/114/87 80/118/80
f 86/113/86 81/119/81 80/118/80
f 85/115/85 82/120/82 81/119/81
f 84/63/84 83/60/83 82/120/82
f 79/116/79 74/75/74 34/77/34
f 79/116/79 80/118/80 75/78/75
f 80/118/80 81/119/81 76/83/76
f 82/120/82 77/82/77 76/83/76
f 83/60/83 78/62/78 77/82/77
f 89/17/89 90/15/89 170/121/89
f 90/15/89 91/13/89 171/122/89
f 171/122/89 91/13/89 92/11/89
f 172/123/89 92/11/89 93/10/89
f 173/125/89 93/8/89 94/6/89
f 174/126/89 94/6/89 95/5/89
f 95/5/89 96/19/89 176/2/89
f 96/19/89 89/17/89 169/3/89
f 177/128/29 97/44/29 98/43/29
f 178/129/29 98/43/29 99/42/29
f 99/42/29 100/40/29 180/131/29
f 100/40/29 101/38/29 181/132/29
f 101/38/29 102/36/29 182/133/29
f 182/133/29 102/36/29 103/35/29
f 103/35/29 104/46/29 29/33/29
f 104/46/29 97/48/29 177/134/29
f 112/137/29 185/159/29 186/160/29
f 186/160/29 187/161/29 188/135/29
f 188/135/29 189/162/29 190/136/29
f 190/136/29 191/163/29 112/137/29
f 112/137/29 186/160/29 188/135/29
f 27/133/27 110/142/27 109/138/26
f 25/131/25 108/143/25 107/139/24
f 106/140/23 105/164/22 22/128/22
f 105/141/22 192/31/115 184/33/115
f 28/32/28 111/154/28 110/142/27
f 26/132/26 109/138/26 108/143/25
f 107/139/24 106/140/23 23/129/23
f 200/146/89 193/165/89 194/166/89
f 194/166/89 195/167/89 196/144/89
f 196/144/89 197/168/89 198/145/89
f 198/145/89 199/169/89 200/146/89
f 200/146/89 194/166/89 196/144/89
f 119/147/7 118/151/6 6/126/6
f 117/148/5 116/152/4 4/123/4
f 115/149/3 114/153/2 2/121/2
f 120/150/8 119/147/7 7/127/7
f 118/151/6 117/170/5 5/125/5
f 116/152/4 115/149/3 3/122/3
f 114/153/2 113/1/1 1/3/1
