# Blender 5.1.2
# www.blender.org
o Straight
v -0.000000 -0.500000 -0.223605
v -0.000000 0.500000 -0.223605
v 0.158113 -0.500000 -0.158113
v 0.158113 0.500000 -0.158113
v 0.223605 -0.500000 0.000000
v 0.223605 0.500000 0.000000
v 0.158113 -0.500000 0.158113
v 0.158113 0.500000 0.158113
v -0.000000 -0.500000 0.223605
v -0.000000 0.500000 0.223605
v -0.158113 -0.500000 0.158113
v -0.158113 0.500000 0.158113
v -0.223605 -0.500000 0.000000
v -0.223605 0.500000 0.000000
v -0.158113 -0.500000 -0.158113
v -0.158113 0.500000 -0.158113
v -0.000000 -0.440000 -0.249736
v 0.176590 -0.440000 -0.176590
v 0.249736 -0.440000 0.000000
v 0.176590 -0.440000 0.176590
v -0.000000 -0.440000 0.249736
v -0.176590 -0.440000 0.176590
v -0.249736 -0.440000 0.000000
v -0.176590 -0.440000 -0.176590
v 0.176590 0.440000 -0.176590
v -0.000000 0.440000 -0.249736
v 0.249736 0.440000 0.000000
v 0.176590 0.440000 0.176590
v -0.000000 0.440000 0.249736
v -0.176590 0.440000 0.176590
v -0.249736 0.440000 0.000000
v -0.176590 0.440000 -0.176590
v -0.000000 -0.440000 -0.300000
v 0.212132 -0.440000 -0.212132
v 0.300000 -0.440000 0.000000
v 0.212132 -0.440000 0.212132
v -0.000000 -0.440000 0.300000
v -0.212132 -0.440000 0.212132
v -0.300000 -0.440000 0.000000
v -0.212132 -0.440000 -0.212132
v 0.212132 0.440000 -0.212132
v -0.000000 0.440000 -0.300000
v 0.300000 0.440000 0.000000
v 0.212132 0.440000 0.212132
v -0.000000 0.440000 0.300000
v -0.212132 0.440000 0.212132
v -0.300000 0.440000 0.000000
v -0.212132 0.440000 -0.212132
v -0.000000 -0.500000 -0.300000
v 0.212132 -0.500000 -0.212132
v 0.212132 0.500000 -0.212132
v -0.000000 0.500000 -0.300000
v 0.300000 -0.500000 0.000000
v 0.300000 0.500000 0.000000
v 0.212132 -0.500000 0.212132
v 0.212132 0.500000 0.212132
v -0.000000 -0.500000 0.300000
v -0.000000 0.500000 0.300000
v -0.212132 -0.500000 0.212132
v -0.212132 0.500000 0.212132
v -0.300000 -0.500000 0.000000
v -0.300000 0.500000 0.000000
v -0.212132 -0.500000 -0.212132
v -0.212132 0.500000 -0.212132
v -0.000000 -0.386178 -0.223605
v 0.158113 -0.386178 -0.158113
v 0.158113 0.386178 -0.158113
v -0.000000 0.386178 -0.223605
v 0.223605 -0.386178 0.000000
v 0.223605 0.386178 0.000000
v 0.158113 -0.386178 0.158113
v 0.158113 0.386178 0.158113
v -0.000000 -0.386178 0.223605
v -0.000000 0.386178 0.223605
v -0.158113 -0.386178 0.158113
v -0.158113 0.386178 0.158113
v -0.223605 -0.386178 0.000000
v -0.223605 0.386178 0.000000
v -0.158113 -0.386178 -0.158113
v -0.158113 0.386178 -0.158113
v -0.000000 -0.500000 -0.300000
v 0.212132 -0.500000 -0.212132
v 0.212132 0.500000 -0.212132
v -0.000000 0.500000 -0.300000
v 0.300000 -0.500000 0.000000
v 0.300000 0.500000 0.000000
v 0.212132 -0.500000 0.212132
v 0.212132 0.500000 0.212132
v -0.000000 -0.500000 0.300000
v -0.000000 0.500000 0.300000
v -0.212132 -0.500000 0.212132
v -0.212132 0.500000 0.212132
v -0.300000 -0.500000 0.000000
v -0.300000 0.500000 0.000000
v -0.212132 -0.500000 -0.212132
v -0.212132 0.500000 -0.212132
v -0.000000 -0.440000 -0.300000
v 0.212132 -0.440000 -0.212132
v 0.300000 -0.440000 0.000000
v 0.212132 -0.440000 0.212132
v -0.000000 -0.440000 0.300000
v -0.212132 -0.440000 0.212132
v -0.300000 -0.440000 0.000000
v -0.212132 -0.440000 -0.212132
v 0.212132 0.440000 -0.212132
v -0.000000 0.440000 -0.300000
v 0.300000 0.440000 0.000000
v 0.212132 0.440000 0.212132
v -0.000000 0.440000 0.300000
v -0.212132 0.440000 0.212132
v -0.300000 0.440000 0.000000
v -0.212132 0.440000 -0.212132
v -0.000000 -0.440000 -0.249736
v 0.176590 -0.440000 -0.176590
v 0.249736 -0.440000 0.000000
v 0.176590 -0.440000 0.176590
v -0.000000 -0.440000 0.249736
v -0.176590 -0.440000 0.176590
v -0.249736 -0.440000 0.000000
v -0.176590 -0.440000 -0.176590
v 0.176590 0.440000 -0.176590
v -0.000000 0.440000 -0.249736
v 0.249736 0.440000 0.000000
v 0.176590 0.440000 0.176590
v -0.000000 0.440000 0.249736
v -0.176590 0.440000 0.176590
v -0.249736 0.440000 0.000000
v -0.176590 0.440000 -0.176590
v -0.000000 -0.500000 -0.223605
v 0.158113 -0.500000 -0.158113
v 0.158113 0.500000 -0.158113
v -0.000000 0.500000 -0.223605
v 0.223605 -0.500000 0.000000
v 0.223605 0.500000 0.000000
v 0.158113 -0.500000 0.158113
v 0.158113 0.500000 0.158113
v -0.000000 -0.500000 0.223605
v -0.000000 0.500000 0.223605
v -0.158113 -0.500000 0.158113
v -0.158113 0.500000 0.158113
v -0.223605 -0.500000 0.000000
v -0.223605 0.500000 0.000000
v -0.158113 -0.500000 -0.158113
v -0.158113 0.500000 -0.158113
v -0.000000 -0.386178 -0.223605
v 0.158113 -0.386178 -0.158113
v 0.158113 0.386178 -0.158113
v -0.000000 0.386178 -0.223605
v 0.223605 -0.386178 0.000000
v 0.223605 0.386178 0.000000
v 0.158113 -0.386178 0.158113
v 0.158113 0.386178 0.158113
v -0.000000 -0.386178 0.223605
v -0.000000 0.386178 0.223605
v -0.158113 -0.386178 0.158113
v -0.158113 0.386178 0.158113
v -0.223605 -0.386178 0.000000
v -0.223605 0.386178 0.000000
v -0.158113 -0.386178 -0.158113
v -0.158113 0.386178 -0.158113
vn -0.0000 -0.0000 1.0000
vn -0.7071 -0.0000 0.7071
vn -1.0000 -0.0000 -0.0000
vn -0.0000 -1.0000 -0.0000
vn -0.7071 -0.0000 -0.7071
vn -0.0000 -0.0000 -1.0000
vn 0.7071 -0.0000 -0.7071
vn 1.0000 -0.0000 -0.0000
vn -0.0000 1.0000 -0.0000
vn 0.7071 -0.0000 0.7071
vt 0.322504 0.150430
vt 0.248929 0.221153
vt 0.244283 0.156450
vt 0.323376 0.149069
vt 0.249723 0.219635
vt 0.245148 0.154922
vt 0.467038 0.387831
vt 0.079861 0.471370
vt 0.080066 0.387163
vt 0.481863 0.071683
vt 0.561100 0.114148
vt 0.481148 0.105470
vt 0.401090 0.073758
vt 0.401245 0.108234
vt 0.320185 0.072669
vt 0.321126 0.106425
vt 0.238810 0.082947
vt 0.241279 0.117102
vt 0.156607 0.095680
vt 0.160388 0.128477
vt 0.069537 0.121040
vt 0.075483 0.156597
vt 0.644742 0.087635
vt 0.728212 0.141230
vt 0.641844 0.120565
vt 0.562723 0.079891
vt 0.467437 0.303837
vt 0.080562 0.303027
vt 0.070442 0.119140
vt 0.161284 0.126770
vt 0.076348 0.154710
vt 0.157539 0.093965
vt 0.242188 0.115568
vt 0.239756 0.081408
vt 0.322046 0.105061
vt 0.321142 0.071303
vt 0.402163 0.107041
vt 0.402045 0.072564
vt 0.482069 0.104446
vt 0.482822 0.070661
vt 0.562011 0.113294
vt 0.563672 0.079041
vt 0.642748 0.119883
vt 0.645682 0.086960
vt 0.729093 0.140733
vt 0.073786 0.091303
vt 0.154795 0.068430
vt 0.237753 0.055491
vt 0.320388 0.045338
vt 0.401647 0.046227
vt 0.483266 0.044407
vt 0.564637 0.052590
vt 0.646923 0.061024
vt 0.726359 0.077386
vt 0.733133 0.104939
vt 0.647892 0.060354
vt 0.727311 0.076885
vt 0.565616 0.051744
vt 0.484254 0.043389
vt 0.402633 0.045034
vt 0.321375 0.043972
vt 0.238730 0.053950
vt 0.155757 0.066712
vt 0.074723 0.089412
vt 0.467232 0.892230
vt 0.079861 0.975556
vt 0.080260 0.891562
vt 0.467437 0.808023
vt 0.080387 0.807636
vt 0.467410 0.723830
vt 0.080288 0.723695
vt 0.467224 0.639715
vt 0.080074 0.639678
vt 0.467009 0.555698
vt 0.079888 0.555563
vt 0.466910 0.471757
vt 0.096086 0.191623
vt 0.167325 0.170437
vt 0.709671 0.177433
vt 0.559810 0.152620
vt 0.637403 0.162317
vt 0.481145 0.148467
vt 0.401384 0.147622
vt 0.402259 0.146429
vt 0.480272 0.149492
vt 0.558942 0.153478
vt 0.636545 0.163010
vt 0.168175 0.168745
vt 0.708830 0.177972
vt 0.096913 0.189779
vt 0.736198 0.465618
vt 0.641827 0.426529
vt 0.680917 0.332158
vt 0.775062 0.426179
vt 0.681885 0.464774
vt 0.643290 0.371597
vt 0.555738 0.218107
vt 0.479798 0.213071
vt 0.176473 0.232491
vt 0.324636 0.215109
vt 0.630441 0.227526
vt 0.402437 0.211314
vt 0.106137 0.254062
vt 0.106896 0.252240
vt 0.401633 0.212507
vt 0.631229 0.226820
vt 0.325437 0.213752
vt 0.175692 0.234165
vt 0.478996 0.214099
vt 0.556536 0.217243
vt 0.732213 0.105428
vt 0.466736 0.976366
vt 0.736198 0.332158
vt 0.775288 0.371247
vt 0.775288 0.426529
vt 0.680917 0.465618
vt 0.641827 0.371247
vt 0.681885 0.333002
vt 0.736467 0.333002
vt 0.775062 0.371597
vt 0.736467 0.464774
vt 0.643290 0.426179
vt 0.701479 0.241760
vt 0.702251 0.241206
s 1
f 135/1/5 69/2/3 5/3/3
f 12/4/7 158/5/8 142/6/8
f 120/7/5 31/8/3 128/9/5
f 102/10/2 93/11/3 91/12/2
f 101/13/1 91/12/2 89/14/1
f 100/15/10 89/14/1 87/16/10
f 99/17/8 87/16/10 85/18/8
f 98/19/7 85/18/8 82/20/7
f 97/21/6 82/20/7 81/22/6
f 104/23/5 81/24/6 95/25/5
f 103/26/3 95/25/5 93/11/3
f 17/27/6 128/9/5 26/28/6
f 106/29/6 96/30/5 84/31/6
f 112/32/5 94/33/3 96/30/5
f 111/34/3 92/35/2 94/33/3
f 110/36/2 90/37/1 92/35/2
f 109/38/1 88/39/10 90/37/1
f 108/40/10 86/41/8 88/39/10
f 107/42/8 83/43/7 86/41/8
f 105/44/7 84/45/6 83/43/7
f 34/19/9 113/46/9 114/47/9
f 115/48/9 34/19/9 114/47/9
f 36/15/9 115/48/9 116/49/9
f 37/13/9 116/49/9 117/50/9
f 38/10/9 117/50/9 118/51/9
f 39/26/9 118/51/9 119/52/9
f 40/23/9 119/52/9 24/53/9
f 113/54/9 40/23/9 24/53/9
f 42/55/4 121/56/4 122/57/4
f 41/44/4 123/58/4 121/56/4
f 123/58/4 44/40/4 124/59/4
f 44/40/4 125/60/4 124/59/4
f 125/60/4 46/36/4 126/61/4
f 46/36/4 127/62/4 126/61/4
f 47/34/4 32/63/4 127/62/4
f 48/32/4 122/64/4 32/63/4
f 18/65/7 26/66/6 25/67/7
f 19/68/8 25/67/7 27/69/8
f 20/70/10 27/69/8 28/71/10
f 21/72/1 28/71/10 29/73/1
f 22/74/2 29/73/1 30/75/2
f 23/76/3 30/75/2 31/8/3
f 129/77/4 50/20/4 130/78/4
f 132/79/9 51/43/9 52/45/9
f 130/78/4 53/18/4 133/3/4
f 134/80/9 51/43/9 131/81/9
f 133/3/4 55/16/4 7/1/4
f 136/82/9 54/41/9 134/80/9
f 137/83/4 55/16/4 57/14/4
f 138/84/9 56/39/9 136/82/9
f 137/83/4 59/12/4 139/85/4
f 138/84/9 60/35/9 58/37/9
f 139/85/4 61/11/4 141/86/4
f 14/6/9 60/35/9 140/4/9
f 141/86/4 63/25/4 143/87/4
f 144/88/9 62/33/9 14/6/9
f 129/89/4 63/25/4 49/24/4
f 132/90/9 64/30/9 144/88/9
f 78/91/9 154/92/9 150/93/9
f 71/94/4 155/95/4 159/96/4
f 15/87/10 77/97/8 13/86/8
f 6/80/3 72/98/5 8/82/5
f 142/6/8 80/99/10 16/88/10
f 9/83/6 151/100/5 135/1/5
f 1/89/1 79/101/10 15/87/10
f 8/82/5 74/102/6 10/84/6
f 3/78/2 65/103/1 1/77/1
f 16/88/10 68/104/1 2/90/1
f 11/85/7 73/105/6 9/83/6
f 2/79/1 67/106/2 4/81/2
f 10/84/6 76/107/7 12/4/7
f 5/3/3 66/108/2 3/78/2
f 13/86/8 75/109/7 11/85/7
f 4/81/2 70/110/3 6/80/3
f 135/1/5 151/100/5 69/2/3
f 12/4/7 76/107/7 158/5/8
f 120/7/5 23/76/3 31/8/3
f 102/10/2 103/26/3 93/11/3
f 101/13/1 102/10/2 91/12/2
f 100/15/10 101/13/1 89/14/1
f 99/17/8 100/15/10 87/16/10
f 98/19/7 99/17/8 85/18/8
f 97/21/6 98/19/7 82/20/7
f 104/23/5 97/111/6 81/24/6
f 103/26/3 104/23/5 95/25/5
f 17/27/6 120/7/5 128/9/5
f 106/29/6 112/32/5 96/30/5
f 112/32/5 111/34/3 94/33/3
f 111/34/3 110/36/2 92/35/2
f 110/36/2 109/38/1 90/37/1
f 109/38/1 108/40/10 88/39/10
f 108/40/10 107/42/8 86/41/8
f 107/42/8 105/44/7 83/43/7
f 105/44/7 106/55/6 84/45/6
f 34/19/9 33/21/9 113/46/9
f 115/48/9 35/17/9 34/19/9
f 36/15/9 35/17/9 115/48/9
f 37/13/9 36/15/9 116/49/9
f 38/10/9 37/13/9 117/50/9
f 39/26/9 38/10/9 118/51/9
f 40/23/9 39/26/9 119/52/9
f 113/54/9 33/111/9 40/23/9
f 42/55/4 41/44/4 121/56/4
f 41/44/4 43/42/4 123/58/4
f 123/58/4 43/42/4 44/40/4
f 44/40/4 45/38/4 125/60/4
f 125/60/4 45/38/4 46/36/4
f 46/36/4 47/34/4 127/62/4
f 47/34/4 48/32/4 32/63/4
f 48/32/4 42/29/4 122/64/4
f 18/65/7 17/112/6 26/66/6
f 19/68/8 18/65/7 25/67/7
f 20/70/10 19/68/8 27/69/8
f 21/72/1 20/70/10 28/71/10
f 22/74/2 21/72/1 29/73/1
f 23/76/3 22/74/2 30/75/2
f 129/77/4 49/22/4 50/20/4
f 132/79/9 131/81/9 51/43/9
f 130/78/4 50/20/4 53/18/4
f 134/80/9 54/41/9 51/43/9
f 133/3/4 53/18/4 55/16/4
f 136/82/9 56/39/9 54/41/9
f 137/83/4 7/1/4 55/16/4
f 138/84/9 58/37/9 56/39/9
f 137/83/4 57/14/4 59/12/4
f 138/84/9 140/4/9 60/35/9
f 139/85/4 59/12/4 61/11/4
f 14/6/9 62/33/9 60/35/9
f 141/86/4 61/11/4 63/25/4
f 144/88/9 64/30/9 62/33/9
f 129/89/4 143/87/4 63/25/4
f 132/90/9 52/31/9 64/30/9
f 150/93/9 147/113/9 148/114/9
f 148/114/9 160/115/9 78/91/9
f 78/91/9 156/116/9 154/92/9
f 154/92/9 152/117/9 150/93/9
f 150/93/9 148/114/9 78/91/9
f 159/96/4 145/118/4 146/119/4
f 146/119/4 149/120/4 71/94/4
f 71/94/4 153/121/4 155/95/4
f 155/95/4 157/122/4 159/96/4
f 159/96/4 146/119/4 71/94/4
f 15/87/10 79/101/10 77/97/8
f 6/80/3 70/110/3 72/98/5
f 142/6/8 158/5/8 80/99/10
f 9/83/6 73/105/6 151/100/5
f 1/89/1 65/123/1 79/101/10
f 8/82/5 72/98/5 74/102/6
f 3/78/2 66/108/2 65/103/1
f 16/88/10 80/99/10 68/104/1
f 11/85/7 75/109/7 73/105/6
f 2/79/1 68/124/1 67/106/2
f 10/84/6 74/102/6 76/107/7
f 5/3/3 69/2/3 66/108/2
f 13/86/8 77/97/8 75/109/7
f 4/81/2 67/106/2 70/110/3
