# Blender 4.0.2
# www.blender.org
o Cube
v -0.554616 0.424239 -0.369688
v -0.522478 -0.298125 -0.368930
v -1.057318 -0.084696 -0.029280
v -0.214163 0.613936 0.438289
v -0.573638 -0.250466 0.562454
v 0.652576 0.232961 -0.399537
v 0.445336 -0.490033 0.222645
v 0.759559 0.484365 0.354744
v 0.404339 -0.082330 0.700025
v 0.495854 -0.393595 0.484248
v -0.279711 0.499371 0.624976
v 0.607812 0.671961 -0.216458
v -0.301754 -0.511987 0.156539
v 0.173013 -0.245211 -0.534246
v -1.217311 0.196551 0.286383
v -1.032069 0.463792 0.157315
v -0.254862 0.111848 -0.624606
v 0.169611 0.123908 -0.663677
v 0.903390 0.301637 -0.026397
v -0.079843 0.231750 0.823062
v -1.032069 0.463792 0.157315
v -0.554616 0.424239 -0.369688
v -0.573638 -0.250466 0.562454
v 0.495854 -0.393595 0.484248
v -1.217311 0.196551 0.286383
v 0.169611 0.123908 -0.663677
v 0.652576 0.232961 -0.399537
v -0.254862 0.111848 -0.624606
v 0.903390 0.301637 -0.026397
vn 0.3934 0.8403 -0.3729
vn 0.5365 0.3708 -0.7581
vn 0.0426 0.5924 -0.8045
vn -0.3643 0.8504 0.3797
vn -0.0660 0.9571 0.2822
vn -0.3985 -0.6650 -0.6317
vn -0.1907 -0.9799 0.0589
vn -0.8245 -0.4403 -0.3555
vn -0.4149 -0.8497 0.3255
vn 0.2531 -0.6590 -0.7082
vn -0.9350 -0.2182 -0.2795
vn -0.1803 0.6743 0.7162
vn -0.6406 0.1261 -0.7574
vn -0.3429 -0.2539 -0.9044
vn 0.5079 -0.4105 0.7573
vn 0.6890 0.5123 0.5126
vn 0.4048 -0.2148 0.8888
vn 0.9539 0.2999 -0.0145
vn 0.4748 -0.8422 0.2556
vn -0.1394 0.8841 -0.4460
vn -0.7302 0.2499 -0.6359
vn 0.4584 -0.8874 -0.0501
vn -0.4529 0.3740 0.8094
vn -0.0153 0.1682 0.9856
vn -0.3026 -0.2121 0.9292
vn 0.2329 -0.3199 -0.9184
vn 0.6907 -0.5143 -0.5084
vn 0.7702 -0.5482 -0.3259
vn -0.0912 0.5756 -0.8126
vt 0.559127 0.415663
vt 0.559323 0.455081
vt 0.502844 0.456249
vt 0.469582 0.305658
vt 0.543751 0.349139
vt 0.419369 0.349770
vt 0.377054 0.363979
vt 0.404399 0.303954
vt 0.341851 0.329382
vt 0.433143 0.401355
vt 0.391396 0.268039
vt 0.550689 0.334106
vt 0.469508 0.311601
vt 0.468998 0.360454
vt 0.658149 0.340015
vt 0.591942 0.388334
vt 0.615225 0.340013
vt 0.605421 0.428762
vt 0.345586 0.430702
vt 0.471537 0.376009
vt 0.425005 0.259058
vt 0.371313 0.421663
vt 0.474934 0.262976
vt 0.576880 0.325572
vt 0.575021 0.259058
vt 0.469508 0.408042
vt 0.449046 0.466613
vt 0.411719 0.498726
vt 0.469582 0.427653
s 1
f 12/1/1 6/2/2 26/3/3
f 21/4/4 4/5/5 12/1/1
f 2/6/6 13/7/7 3/8/8
f 13/7/7 23/9/9 3/8/8
f 2/6/6 14/10/10 13/7/7
f 25/11/11 3/8/8 23/9/9
f 11/12/12 4/5/5 21/4/4
f 1/13/13 28/14/14 3/8/8
f 10/15/15 8/16/16 9/17/17
f 29/18/18 8/16/16 10/15/15
f 12/1/1 29/18/18 6/2/2
f 13/7/7 24/19/19 23/9/9
f 4/5/5 11/12/12 8/16/16
f 12/1/1 4/5/5 8/16/16
f 22/20/20 21/4/4 12/1/1
f 3/8/8 16/21/21 1/13/13
f 13/7/7 14/10/10 7/22/22
f 15/23/23 11/12/12 21/4/4
f 20/24/24 15/23/23 5/25/25
f 14/10/10 28/14/14 18/26/26
f 18/26/26 27/27/27 14/10/10
f 2/6/6 3/8/8 28/14/14
f 26/3/3 22/20/20 12/1/1
f 7/22/22 27/27/27 19/28/28
f 5/25/25 9/17/17 20/24/24
f 19/28/28 24/19/19 7/22/22
f 29/18/18 12/1/1 8/16/16
f 8/16/16 20/24/24 9/17/17
f 8/16/16 11/12/12 20/24/24
f 13/7/7 7/22/22 24/19/19
f 3/8/8 25/11/11 16/21/21
f 15/23/23 20/24/24 11/12/12
f 14/10/10 2/6/6 28/14/14
f 26/3/3 17/29/29 22/20/20
f 7/22/22 14/10/10 27/27/27
f 5/25/25 10/15/15 9/17/17
