# Blender 5.1.2
# www.blender.org
o Cube
v 0.500000 -0.279582 -0.500000
v 0.500000 -0.500000 -0.500000
v 0.500000 -0.279582 0.500000
v 0.500000 -0.500000 0.500000
v -0.500000 -0.279582 -0.500000
v -0.500000 -0.500000 -0.500000
v -0.500000 -0.279582 0.500000
v -0.500000 -0.500000 0.500000
vn -0.0000 1.0000 -0.0000
vn -0.0000 -0.0000 1.0000
vn -1.0000 -0.0000 -0.0000
vn -0.0000 -1.0000 -0.0000
vn 1.0000 -0.0000 -0.0000
vn -0.0000 -0.0000 -1.0000
vt 0.090368 0.500000
vt 0.500000 0.090367
vt 0.500000 0.500000
vt 0.090367 0.000077
vt 0.500000 0.000077
vt 0.090367 0.090368
vt 0.000077 0.500000
vt 0.000077 0.090368
vt 0.500000 0.590291
vt 0.090368 0.999923
vt 0.090368 0.590291
vt 0.590291 0.090367
vt 0.590291 0.500000
vt 0.500000 0.999923
s 0
f 5/1/1 3/2/1 1/3/1
f 3/2/2 8/4/2 4/5/2
f 7/6/3 6/7/3 8/8/3
f 2/9/4 8/10/4 6/11/4
f 1/3/5 4/12/5 2/13/5
f 5/1/6 2/9/6 6/11/6
f 5/1/1 7/6/1 3/2/1
f 3/2/2 7/6/2 8/4/2
f 7/6/3 5/1/3 6/7/3
f 2/9/4 4/14/4 8/10/4
f 1/3/5 3/2/5 4/12/5
f 5/1/6 1/3/6 2/9/6
