# Blender 5.1.2
# www.blender.org
mtllib thruster.mtl
o Cube
v 0.293487 -0.293487 0.545397
v 0.415053 0.000000 0.545397
v 0.431484 0.000000 0.228937
v 0.327685 -0.000000 -0.194015
v 0.305105 -0.305105 0.228937
v 0.231708 -0.231708 -0.194015
v 0.000000 -0.431484 0.228937
v 0.000000 -0.327685 -0.194015
v -0.305105 -0.305105 0.228937
v -0.231708 -0.231708 -0.194015
v -0.431484 0.000000 0.228937
v -0.327685 -0.000000 -0.194015
v -0.305105 0.305105 0.228937
v -0.231708 0.231708 -0.194015
v 0.000000 0.431484 0.228937
v 0.000000 0.327685 -0.194015
v 0.305105 0.305105 0.228937
v 0.231708 0.231708 -0.194015
v 0.000000 -0.415053 0.545397
v -0.293487 -0.293487 0.545397
v -0.415053 0.000000 0.545397
v -0.293487 0.293487 0.545397
v 0.000000 0.415053 0.545397
v 0.293487 0.293487 0.545397
v 0.500000 -0.500000 -0.500000
v 0.500000 0.500000 -0.500000
v 0.419005 -0.419005 -0.139255
v 0.419005 0.419005 -0.139255
v -0.500000 -0.500000 -0.500000
v -0.500000 0.500000 -0.500000
v -0.419005 -0.419005 -0.139255
v -0.419005 0.419005 -0.139255
v 0.337833 0.337833 0.545397
v 0.477768 0.000000 0.545397
v 0.000000 0.477768 0.545397
v -0.337833 0.337833 0.545397
v -0.477768 0.000000 0.545397
v -0.337833 -0.337833 0.545397
v 0.000000 -0.477768 0.545397
v 0.337833 -0.337833 0.545397
v 0.193828 0.221018 -0.031668
v 0.280564 0.011618 -0.031668
v -0.015573 0.307755 -0.031667
v -0.224973 0.221018 -0.031667
v -0.311709 0.011618 -0.031667
v -0.224973 -0.197782 -0.031667
v -0.015573 -0.284519 -0.031667
v 0.193828 -0.197782 -0.031668
v 0.337833 0.337833 0.545397
v 0.477768 0.000000 0.545397
v 0.000000 0.477768 0.545397
v -0.337833 0.337833 0.545397
v -0.477768 0.000000 0.545397
v -0.337833 -0.337833 0.545397
v 0.000000 -0.477768 0.545397
v 0.337833 -0.337833 0.545397
v 0.419005 -0.419005 -0.139255
v 0.419005 -0.419005 -0.139255
v 0.500000 -0.500000 -0.500000
v 0.500000 -0.500000 -0.500000
v 0.500000 0.500000 -0.500000
v 0.500000 0.500000 -0.500000
v 0.419005 0.419005 -0.139255
v 0.419005 0.419005 -0.139255
v -0.419005 -0.419005 -0.139255
v -0.419005 -0.419005 -0.139255
v -0.419005 0.419005 -0.139255
v -0.419005 0.419005 -0.139255
v -0.500000 -0.500000 -0.500000
v -0.500000 -0.500000 -0.500000
v -0.500000 0.500000 -0.500000
v -0.500000 0.500000 -0.500000
v 0.293487 0.293487 0.545397
v 0.415053 0.000000 0.545397
v 0.000000 0.415053 0.545397
v -0.293487 0.293487 0.545397
v -0.415053 0.000000 0.545397
v -0.293487 -0.293487 0.545397
v 0.000000 -0.415053 0.545397
v 0.293487 -0.293487 0.545397
v 0.193828 0.221018 -0.031668
v 0.280564 0.011618 -0.031668
v -0.015573 0.307755 -0.031667
v -0.224973 0.221018 -0.031667
v -0.311709 0.011618 -0.031667
v -0.224973 -0.197782 -0.031667
v -0.015573 -0.284519 -0.031667
v 0.193828 -0.197782 -0.031668
vn -0.6943 0.6943 -0.1896
vn -0.6997 0.6997 -0.1447
vn -0.0000 0.9895 -0.1447
vn 0.9712 -0.0000 -0.2383
vn 0.9819 -0.0000 -0.1896
vn 0.6943 -0.6943 -0.1896
vn -0.0000 -0.9819 -0.1896
vn 0.6997 -0.6997 -0.1447
vn 0.6867 -0.6867 -0.2383
vn 0.9895 -0.0000 -0.1447
vn -0.0000 -0.9712 -0.2383
vn -0.6943 -0.6943 -0.1896
vn -0.9819 -0.0000 -0.1896
vn -0.9895 -0.0000 -0.1447
vn -0.9712 -0.0000 -0.2383
vn -0.6997 -0.6997 -0.1447
vn 0.6943 0.6943 -0.1896
vn -0.0000 0.9819 -0.1896
vn -0.6867 0.6867 -0.2383
vn -0.0058 0.9753 0.2208
vn -0.6884 0.6869 0.2328
vn -0.6868 0.6885 0.2328
vn -0.0000 0.9712 -0.2383
vn 0.6997 0.6997 -0.1447
vn 0.6867 0.6867 -0.2383
vn -0.0000 -0.9895 -0.1447
vn 0.9757 -0.0000 0.2191
vn -0.0000 -0.0000 1.0000
vn -0.9757 -0.0000 0.2191
vn -0.0000 -0.0000 -1.0000
vn -0.0000 -0.9757 0.2191
vn -0.0000 0.9757 0.2191
vn 0.9843 0.0045 0.1764
vn 0.6880 0.6983 0.1975
vn 0.6992 0.6873 0.1970
vn 0.6960 -0.6975 0.1702
vn 0.6977 -0.6959 0.1702
vn 0.0068 -0.9832 0.1826
vn -0.6969 -0.6867 0.2066
vn -0.6860 -0.6978 0.2061
vn -0.9739 -0.0051 0.2269
vn -0.9739 0.0043 0.2271
vn 0.0068 0.9754 0.2205
vn 0.9843 -0.0051 0.1762
vn -0.0059 -0.9831 0.1830
vn -0.6867 -0.6867 -0.2383
vt 0.669058 0.280037
vt 0.679608 0.353136
vt 0.593468 0.359061
vt 0.478801 0.166615
vt 0.448162 0.261003
vt 0.379915 0.232673
vt 0.315709 0.193883
vt 0.347144 0.297387
vt 0.425042 0.144602
vt 0.424980 0.330104
vt 0.818310 0.111957
vt 0.880296 0.195457
vt 0.813249 0.234701
vt 0.742582 0.263150
vt 0.764114 0.334539
vt 0.711737 0.165874
vt 0.845507 0.303015
vt 0.520083 0.278584
vt 0.594281 0.284724
vt 0.653680 0.179752
vt 0.201092 0.303145
vt 0.201720 0.239523
vt 0.065713 0.248195
vt 0.594559 0.184384
vt 0.507626 0.351041
vt 0.535767 0.179969
vt 0.922014 0.259976
vt 0.562040 0.578689
vt 0.580034 0.496478
vt 0.357715 0.496478
vt 0.562027 0.765019
vt 0.375711 0.578676
vt 0.580023 0.847217
vt 0.375698 0.765006
vt 0.953320 0.719891
vt 0.953320 0.497551
vt 0.730981 0.497551
vt 0.644239 0.560694
vt 0.293500 0.783001
vt 0.935567 0.859841
vt 0.908538 0.925095
vt 0.918397 0.934955
vt 0.908538 0.794587
vt 0.949510 0.859841
vt 0.843284 0.767558
vt 0.918397 0.784728
vt 0.778030 0.794587
vt 0.843284 0.753614
vt 0.751001 0.859841
vt 0.768170 0.784728
vt 0.778030 0.925095
vt 0.737057 0.859841
vt 0.843284 0.952124
vt 0.768170 0.934955
vt 0.843284 0.966068
vt 0.166292 0.741553
vt 0.044630 0.691159
vt 0.080264 0.777187
vt 0.193425 0.432337
vt 0.198707 0.367173
vt 0.068078 0.362130
vt 0.183396 0.498917
vt 0.057562 0.469155
vt 0.044630 0.518662
vt 0.183862 0.111016
vt 0.056144 0.137458
vt 0.062962 0.191590
vt 0.194378 0.175808
vt 0.068559 0.305562
vt 0.064694 0.416824
vt 0.167322 0.044630
vt 0.044630 0.087039
vt 0.275025 0.254801
vt 0.376135 0.114137
vt 0.767240 0.143464
vt 0.357704 0.847217
vt 0.730981 0.719891
vt 0.644239 0.783012
vt 0.293500 0.560683
vt 0.130658 0.655525
vt 0.080264 0.655525
vt 0.166292 0.691159
vt 0.130658 0.777187
vt 0.044630 0.741553
vt 0.166501 0.566264
s 1
usemtl Material.001
f 13/1/1 52/2/2 51/3/3
f 4/4/4 3/5/5 5/6/6
f 7/7/7 5/6/6 56/8/8
f 6/9/9 5/6/6 7/7/7
f 5/6/6 3/5/5 50/10/10
f 8/11/11 7/12/7 9/13/12
f 13/1/1 11/14/13 53/15/14
f 9/13/12 11/14/13 12/16/15
f 11/14/13 9/13/12 54/17/16
f 12/16/15 11/14/13 13/1/1
f 17/18/17 15/19/18 51/3/3
f 14/20/19 13/1/1 15/19/18
f 19/21/20 80/22/21 88/23/22
f 16/24/23 15/19/18 17/18/17
f 3/5/5 17/18/17 49/25/24
f 18/26/25 17/18/17 3/5/5
f 9/13/12 7/12/7 55/27/26
f 57/28/27 59/29/27 61/30/27
f 65/31/28 58/28/28 64/32/28
f 69/33/29 66/31/29 68/34/29
f 60/35/30 70/36/30 72/37/30
f 25/38/31 27/28/31 31/31/31
f 30/39/32 32/34/32 28/32/32
f 73/40/28 74/41/28 34/42/28
f 75/43/28 73/40/28 33/44/28
f 76/45/28 75/43/28 35/46/28
f 77/47/28 76/45/28 36/48/28
f 78/49/28 77/47/28 37/50/28
f 79/51/28 78/49/28 38/52/28
f 1/53/28 79/51/28 39/54/28
f 74/41/28 1/53/28 40/55/28
f 86/56/28 81/57/28 84/58/28
f 21/59/33 20/60/34 46/61/35
f 22/62/36 44/63/37 43/64/38
f 24/65/39 41/66/40 42/67/41
f 2/68/42 42/67/41 88/23/22
f 20/60/34 19/21/20 47/69/43
f 22/62/36 21/59/33 45/70/44
f 23/71/45 43/72/38 41/66/40
f 13/1/1 51/3/3 15/19/18
f 4/4/4 5/6/6 6/9/9
f 7/7/7 56/8/8 55/73/26
f 6/9/9 7/7/7 8/74/11
f 5/6/6 50/10/10 56/8/8
f 8/11/11 9/13/12 10/75/46
f 13/1/1 53/15/14 52/2/2
f 9/13/12 12/16/15 10/75/46
f 11/14/13 54/17/16 53/15/14
f 12/16/15 13/1/1 14/20/19
f 17/18/17 51/3/3 49/25/24
f 14/20/19 15/19/18 16/24/23
f 19/21/20 88/23/22 47/69/43
f 16/24/23 17/18/17 18/26/25
f 3/5/5 49/25/24 50/10/10
f 18/26/25 3/5/5 4/4/4
f 9/13/12 55/27/26 54/17/16
f 57/28/27 61/30/27 63/32/27
f 65/31/28 64/32/28 67/34/28
f 69/33/29 68/34/29 71/76/29
f 60/35/30 72/37/30 62/77/30
f 25/38/31 31/31/31 29/78/31
f 30/39/32 28/32/32 26/79/32
f 73/40/28 34/42/28 33/44/28
f 75/43/28 33/44/28 35/46/28
f 76/45/28 35/46/28 36/48/28
f 77/47/28 36/48/28 37/50/28
f 78/49/28 37/50/28 38/52/28
f 79/51/28 38/52/28 39/54/28
f 1/53/28 39/54/28 40/55/28
f 74/41/28 40/55/28 34/42/28
f 81/57/28 48/80/28 82/81/28
f 48/80/28 86/56/28 87/82/28
f 86/56/28 84/58/28 85/83/28
f 84/58/28 81/57/28 83/84/28
f 81/57/28 86/56/28 48/80/28
f 21/59/33 46/61/35 45/70/44
f 22/62/36 43/64/38 23/85/45
f 24/65/39 42/67/41 2/68/42
f 2/68/42 88/23/22 80/22/21
f 20/60/34 47/69/43 46/61/35
f 22/62/36 45/70/44 44/63/37
f 23/71/45 41/66/40 24/65/39
