# Blender 5.1.2
# www.blender.org
o Cube
v 0.388835 0.487543 -0.388835
v 0.468500 0.090724 -0.468500
v 0.468500 0.090724 0.468500
v -0.388835 0.487543 -0.388835
v -0.468500 0.090724 -0.468500
v -0.468500 0.090724 0.468500
v 0.468500 0.487543 0.468500
v -0.468500 0.487543 0.468500
v 0.468500 0.487543 -0.468500
v -0.468500 0.487543 -0.468500
v -0.388506 0.090724 0.468500
v -0.388761 0.487543 0.468500
v 0.388974 0.090724 0.468500
v 0.388866 0.487543 0.468500
v 0.388835 0.487543 -0.388835
v -0.388835 0.487543 -0.388835
v 0.388866 0.487543 0.468500
v 0.388835 0.412382 -0.388835
v -0.388835 0.412382 -0.388835
v 0.388943 0.277437 0.468500
v -0.388578 0.277421 0.468500
v -0.452622 -0.513671 -0.276153
v -0.452622 0.145943 -0.276153
v -0.452622 -0.513671 -0.437586
v -0.452622 0.145943 -0.437586
v -0.341136 -0.513671 -0.276153
v -0.341136 0.145943 -0.276153
v -0.341136 -0.513671 -0.437586
v -0.341136 0.145943 -0.437586
v 0.333428 -0.513671 -0.276153
v 0.333428 0.145943 -0.276153
v 0.333428 -0.513671 -0.437586
v 0.333428 0.145943 -0.437586
v 0.444914 -0.513671 -0.276153
v 0.444914 0.145943 -0.276153
v 0.444914 -0.513671 -0.437586
v 0.444914 0.145943 -0.437586
v -0.452622 -0.513671 0.424819
v -0.452622 0.145943 0.424819
v -0.452622 -0.513671 0.263385
v -0.452622 0.145943 0.263385
v -0.341136 -0.513671 0.424819
v -0.341136 0.145943 0.424819
v -0.341136 -0.513671 0.263385
v -0.341136 0.145943 0.263385
v 0.333428 -0.513671 0.424819
v 0.333428 0.145943 0.424819
v 0.333428 -0.513671 0.263385
v 0.333428 0.145943 0.263385
v 0.444914 -0.513671 0.424819
v 0.444914 0.145943 0.424819
v 0.444914 -0.513671 0.263385
v 0.444914 0.145943 0.263385
vn -0.0000 -0.0000 1.0000
vn -1.0000 -0.0000 -0.0000
vn -0.0000 -1.0000 -0.0000
vn 1.0000 -0.0000 -0.0000
vn -0.0000 -0.0000 -1.0000
vn -1.0000 -0.0004 -0.0000
vn -0.0000 1.0000 -0.0000
vn 1.0000 -0.0000 -0.0003
vn -0.0000 0.9878 0.1555
vn -1.0000 -0.0000 0.0001
vn 1.0000 0.0009 -0.0001
vt 0.375000 0.750000
vt 0.434119 0.771225
vt 0.375000 0.771218
vt 0.625000 0.000000
vt 0.375000 0.250000
vt 0.375000 0.000000
vt 0.375000 0.500000
vt 0.353782 0.750000
vt 0.146343 0.750000
vt 0.625000 0.500000
vt 0.625000 0.250000
vt 0.646255 0.521255
vt 0.463235 0.764316
vt 0.646247 0.750000
vt 0.625000 0.750000
vt 0.875000 0.500000
vt 0.853745 0.521255
vt 0.434091 0.978673
vt 0.375000 1.000000
vt 0.375000 0.978657
vt 0.853705 0.750000
vt 0.875000 0.750000
vt 0.853725 0.750000
vt 0.625000 1.000000
vt 0.625000 0.978725
vt 0.625000 0.771247
vt 0.125000 0.750000
vt 0.125000 0.500000
s 0
f 3/1/1 20/2/1 13/3/1
f 8/4/2 5/5/2 6/6/2
f 2/7/3 13/8/3 11/9/3
f 9/10/4 3/1/4 2/7/4
f 10/11/5 2/7/5 5/5/5
f 1/12/6 20/13/6 17/14/6
f 1/12/7 7/15/7 9/10/7
f 1/12/7 10/16/7 4/17/7
f 21/18/1 6/19/1 11/20/1
f 21/21/8 19/17/8 4/17/8
f 18/12/9 21/21/9 20/13/9
f 1/12/7 16/17/7 15/12/7
f 4/17/7 8/22/7 12/23/7
f 16/17/1 18/12/1 15/12/1
f 8/24/1 21/18/1 12/25/1
f 20/2/1 7/15/1 14/26/1
f 11/20/1 20/13/1 21/18/1
f 23/4/2 24/5/2 22/6/2
f 25/11/5 28/7/5 24/5/5
f 29/10/4 26/1/4 28/7/4
f 27/15/1 22/19/1 26/1/1
f 28/7/3 22/27/3 24/28/3
f 31/4/2 32/5/2 30/6/2
f 33/11/5 36/7/5 32/5/5
f 37/10/4 34/1/4 36/7/4
f 35/15/1 30/19/1 34/1/1
f 36/7/3 30/27/3 32/28/3
f 39/4/2 40/5/2 38/6/2
f 41/11/5 44/7/5 40/5/5
f 45/10/4 42/1/4 44/7/4
f 43/15/1 38/19/1 42/1/1
f 44/7/3 38/27/3 40/28/3
f 47/4/2 48/5/2 46/6/2
f 49/11/5 52/7/5 48/5/5
f 53/10/4 50/1/4 52/7/4
f 51/15/1 46/19/1 50/1/1
f 52/7/3 46/27/3 48/28/3
f 3/1/1 7/15/1 20/2/1
f 8/4/2 10/11/2 5/5/2
f 6/27/3 5/28/3 2/7/3
f 2/7/3 3/1/3 13/8/3
f 11/9/3 6/27/3 2/7/3
f 9/10/4 7/15/4 3/1/4
f 10/11/5 9/10/5 2/7/5
f 1/12/7 15/12/7 18/12/7
f 1/12/10 18/12/10 20/13/10
f 17/14/7 14/14/7 1/12/7
f 1/12/7 14/14/7 7/15/7
f 1/12/7 9/10/7 10/16/7
f 21/18/1 8/24/1 6/19/1
f 4/17/11 12/23/11 21/21/11
f 19/17/7 16/17/7 4/17/7
f 18/12/9 19/17/9 21/21/9
f 1/12/7 4/17/7 16/17/7
f 4/17/7 10/16/7 8/22/7
f 16/17/1 19/17/1 18/12/1
f 11/20/1 13/3/1 20/13/1
f 23/4/2 25/11/2 24/5/2
f 25/11/5 29/10/5 28/7/5
f 29/10/4 27/15/4 26/1/4
f 27/15/1 23/24/1 22/19/1
f 28/7/3 26/1/3 22/27/3
f 31/4/2 33/11/2 32/5/2
f 33/11/5 37/10/5 36/7/5
f 37/10/4 35/15/4 34/1/4
f 35/15/1 31/24/1 30/19/1
f 36/7/3 34/1/3 30/27/3
f 39/4/2 41/11/2 40/5/2
f 41/11/5 45/10/5 44/7/5
f 45/10/4 43/15/4 42/1/4
f 43/15/1 39/24/1 38/19/1
f 44/7/3 42/1/3 38/27/3
f 47/4/2 49/11/2 48/5/2
f 49/11/5 53/10/5 52/7/5
f 53/10/4 51/15/4 50/1/4
f 51/15/1 47/24/1 46/19/1
f 52/7/3 50/1/3 46/27/3
